<svg xmlns="http://www.w3.org/2000/svg" xmlns:xlink="http://www.w3.org/1999/xlink" viewBox="0 0 3273.86 3802.79"><defs><style>.cls-1{fill:#ffb488;}.cls-2{fill:url(#Gradiente_sem_nome_22);}.cls-3{fill:url(#Gradiente_sem_nome_22-2);}.cls-4{fill:#ffe2ca;}.cls-5{fill:#00fffc;}.cls-6{fill:#5d1515;}.cls-7{fill:url(#Gradiente_sem_nome_9);}.cls-8{fill:#111415;}.cls-9{fill:url(#Gradiente_sem_nome_8);}.cls-10{fill:none;stroke:#2a3335;stroke-miterlimit:10;stroke-width:3px;}.cls-11{fill:#080d0f;}.cls-12,.cls-24{fill:#fff;}.cls-13{opacity:0.15;}.cls-14{fill:#1b1e1e;}.cls-15{fill:#050708;}.cls-16{fill:url(#Gradiente_sem_nome_23);}.cls-17{fill:#ffa376;}.cls-18{fill:#ffc9ae;}.cls-19{fill:#ffceb6;}.cls-20{fill:#ffe0cd;}.cls-21{fill:#3a0d14;stroke:#5d1515;stroke-width:6.71px;}.cls-22{fill:#67291d;}.cls-23{fill:#0f0200;}.cls-24{opacity:0.8;}.cls-25,.cls-26{fill:#30150a;}.cls-25{stroke:#1d1d1b;}.cls-27{fill:#000001;}.cls-28{fill:#874a2e;}.cls-29{fill:#d88361;}.cls-30{fill:#e6e6e6;}.cls-31{fill:#565656;}.cls-32{fill:#2a3335;}.cls-33{fill:#171b1c;}</style><linearGradient id="Gradiente_sem_nome_22" x1="1119.82" y1="1670.79" x2="1882.47" y2="1670.79" gradientUnits="userSpaceOnUse"><stop offset="0" stop-color="#ffb488"/><stop offset="0.38" stop-color="#fea67d"/><stop offset="0.99" stop-color="#fc8865"/></linearGradient><linearGradient id="Gradiente_sem_nome_22-2" x1="1014.36" y1="1825.43" x2="2348.7" y2="1825.43" xlink:href="#Gradiente_sem_nome_22"/><linearGradient id="Gradiente_sem_nome_9" x1="435.44" y1="3778.95" x2="623.79" y2="3527.81" gradientUnits="userSpaceOnUse"><stop offset="0.07" stop-color="#ffb488"/><stop offset="0.21" stop-color="#ffa67b"/><stop offset="0.48" stop-color="#ff825a"/><stop offset="0.81" stop-color="#ff4b27"/></linearGradient><linearGradient id="Gradiente_sem_nome_8" x1="3005.43" y1="3553.02" x2="2432.48" y2="3255.91" gradientUnits="userSpaceOnUse"><stop offset="0.07" stop-color="#ffb488"/><stop offset="0.75" stop-color="#ff4b27"/></linearGradient><linearGradient id="Gradiente_sem_nome_23" x1="1393.16" y1="1433.13" x2="1354.28" y2="578.53" gradientUnits="userSpaceOnUse"><stop offset="0" stop-color="#ffb488"/><stop offset="0.37" stop-color="#fea67d"/><stop offset="0.96" stop-color="#fc8865"/></linearGradient></defs><g id="Camada_2" data-name="Camada 2"><g id="Camada_1-2" data-name="Camada 1"><path class="cls-1" d="M3260.05,3802.5H1848.45l.13.29-34.18-.29-31.25-.27-67.07-.57-96.82-.82-140.47-1.2-484.91-4.14-27.74-25.68L879.9,3690l-18-16.62h0l-15.18-14-67.87-62.82-24.43,63.14-27.34,70.63-28,72.23H36.56l69-214.61,21.12-65.74,2.75-8.58h0l5.48-17.07,10.1-19.58,12-23.3,1.86-3.59,1.27-2.47,27.32-52.95,22.66-43.91L850.65,2109.34h0l36.1-69.95,5.36-10.4h0l.76-1.47,122.8-89.66,19.28-14.08,14.69-10.73,50-36.5,21.53-15.72,7-5.13a46.63,46.63,0,0,0,18.93-33.33c.4-4.31.79-9.2,1.12-14.6,0-.46.07-.92.09-1.39.06-.89.11-1.8.16-2.72s.12-2,.17-3,.11-2,.15-3c.08-1.52.15-3.08.21-4.66,0-.77.07-1.54.1-2.33l.06-1.64,0-.87c0-.12,0-.24,0-.37s0-.23,0-.34l.09-2.61c0-1.12.07-2.25.1-3.4s.07-2.29.1-3.46,0-2.49.08-3.76c0-.76,0-1.52.05-2.28,0-1.15,0-2.32.06-3.5,0-2.18,0-4.4.07-6.64v-.28c0-1.27,0-2.55,0-3.84q0-3.58,0-7.28c0-1.11,0-2.22,0-3.35,0-.67,0-1.34,0-2s0-1.2,0-1.8v-.33c0-1.17,0-2.35,0-3.54l0-2c0-.3,0-.6,0-.91,0-.78,0-1.57,0-2.37s0-1.59-.05-2.39q-.15-7.19-.41-14.66c0-1-.07-2-.11-3q-.1-3-.24-6c0-1-.09-2-.14-3q-.07-1.85-.18-3.72c0-.8-.08-1.59-.12-2.4,0-.45,0-.9-.07-1.35,0-.6-.07-1.21-.1-1.83l-.06-1.06c0-.65-.07-1.3-.11-1.94-.06-1-.12-2.07-.19-3.12l-.12-2c0-.37,0-.73-.07-1.1v-.08c-.05-.78-.11-1.56-.16-2.35l-.27-4c-.07-1-.15-2.11-.23-3.17s-.16-2.11-.24-3.18-.16-2.12-.25-3.19q-.19-2.5-.42-5,0-.7-.12-1.41l-.12-1.38-.12-1.38c0-.46-.08-.92-.13-1.38l-.21-2.31q-.62-6.63-1.35-13.34h0c0-.39-.08-.78-.13-1.18h0c0-.13,0-.26,0-.39q-.37-3.33-.77-6.69c-.22-1.91-.45-3.81-.69-5.72q-1.67-13.41-3.8-26.88c-.17-1.06-.34-2.12-.52-3.17-.12-.8-.25-1.6-.39-2.41-.26-1.58-.53-3.16-.81-4.73-.23-1.36-.47-2.72-.71-4.08l-.33-1.78c0-.24-.08-.47-.13-.71-.12-.73-.26-1.45-.4-2.18-.25-1.36-.51-2.73-.77-4.09h0q-1.12-5.86-2.36-11.69c-.26-1.19-.51-2.38-.77-3.57l-.18-.83c-.39-1.75-.78-3.51-1.18-5.26s-.81-3.49-1.22-5.24q-.9-3.75-1.84-7.49c-.28-1.1-.56-2.21-.85-3.31q-1.62-6.3-3.4-12.5-.67-2.33-1.36-4.65c-.06-.19-.11-.38-.17-.57q-.69-2.32-1.41-4.64c-7-22.67-15.57-44-25.94-63-29.71-54.54,93.3-77.6,249.65-85.78h0c56.75-3,117.88-4,177.7-3.81h0c99.15.27,194.67,3.75,260.57,6.83h0c32.48,1.51,57.76,2.93,72.74,3.82,9.9.58,15.3.94,15.3.94s0,1.2.1,3.45h0c0,1.61.1,3.77.19,6.4,0,.17,0,.35,0,.53.1,3,.22,6.64.38,10.79.18,4.73.41,10.15.68,16.15v0c.27,5.9.58,12.38,1,19.31,0,0,0,.09,0,.14.83,15.57,1.94,33.44,3.39,52.46h0c3,39.39,7.5,83.65,14.16,122.35a0,0,0,0,1,0,.05c1.69,9.78,3.51,19.2,5.49,28.09a.43.43,0,0,0,0,0c1.3,5.92,2.67,11.61,4.12,17a230.83,230.83,0,0,0,8.5,26.18c11.23,27.9,28.47,46.88,46.34,59.78a151.92,151.92,0,0,0,52.47,23.94,119.1,119.1,0,0,0,19.19,3.28l235.59,68.57L2343.7,1862l1.62.47,116,33.77,240.45,70a88.14,88.14,0,0,1,61.45,61.34s1.16,4.74,3.35,13.63h0c25.55,103.61,191.71,770.95,309.69,1087.21.38,1,.76,2,1.13,3h0l1.87,5q4.32,11.45,8.56,22.23c7.13,18.2,14.06,34.92,20.73,49.93.44,1,.87,2,1.31,2.94.73,1.63,1.47,3.29,2.2,5h0c4.85,11.2,9.84,23.89,14.89,37.81C3185.2,3414.57,3253.26,3736.46,3260.05,3802.5Z"/><path class="cls-2" d="M1881.88,1470.5c-6,32-23.5,29.5-36.48,53.85s-209.52,365.15-305.52,432.15-248.5-27.5-275.5-52.5c-16.27-15.07-60.9-51.58-93.78-78.21,16.39-69.76,28.54-109.7,18.78-146.79l-47-48.66c-4.63-37.15-11.82-75-22.6-109.79l7.56-10.55,718.5-148.5S1887.88,1438.5,1881.88,1470.5Z"/><path class="cls-3" d="M2348.7,1853l-39.82,111.5-288,225-666,81-288-162-52.52-175,40.29-29.42,64.51-47.1c123.59,240.44,385.81,324.75,572.72,260.57,169.57-58.23,254.37-252.94,225-297-72-108-76-423-76-423l34.29-17.14c1.42,43.77,11,156,14.71,233.14,4,84,141,147,141,147Z"/><path class="cls-4" d="M1169.88,2027.5c-75.73,75.73-193.93,49.51-283.13,11.88l6.13-11.88L1049.65,1913l78.55-57.35a46.63,46.63,0,0,0,18.93-33.33c.4-4.31.79-9.2,1.12-14.6,2.21-34.59,2.78-90.14-2.85-150.07l51.48,45.82S1304.88,1892.5,1169.88,2027.5Z"/><path class="cls-5" d="M1170.6,1825.79c-.41,1.72-.81,3.46-1.22,5.21-17,73-70,114-70,114l-49.73-32,78.55-57.35a46.63,46.63,0,0,0,18.93-33.33c.4-4.31.79-9.2,1.12-14.6C1154.47,1812.75,1162.15,1819,1170.6,1825.79Z"/><path class="cls-5" d="M1170.6,1825.79c-8.45-6.84-16.13-13-22.35-18,0-.46.07-.92.09-1.39.06-.89.11-1.8.16-2.72s.12-2,.17-3,.11-2,.15-3c.08-1.52.15-3.08.21-4.66,0-.77.07-1.54.1-2.33q.12-2.85.21-5.83c0-1.12.07-2.25.1-3.4s.07-2.29.1-3.46,0-2.49.08-3.76c0-.76,0-1.52.05-2.28,0-1.15,0-2.32.06-3.5,0-2.18,0-4.4.07-6.64v-.28c0-1.27,0-2.55,0-3.84a1017.34,1017.34,0,0,0-7.4-127.28l47,48.66C1199.14,1716.09,1187,1756,1170.6,1825.79Z"/><path class="cls-6" d="M1608,2053.73c4.22-5,8.29-10.27,12.24-15.58l3-4,2.91-4c2-2.68,3.85-5.41,5.74-8.14q11.33-16.38,21.74-33.39c14-22.58,26.85-45.86,38.86-69.55a1253.91,1253.91,0,0,0,62.65-146.4l6.63-18.78L1768,1735c1-3.16,2.11-6.3,3.1-9.47L1774,1716c2-6.35,4-12.68,5.87-19l5.5-19.14,2.74-9.57,2.55-9.63,5.14-19.25c1.66-6.42,3.19-12.89,4.79-19.33,6.44-25.77,11.88-51.78,17.09-77.83l1-4.88.9-4.9,1.81-9.8,3.6-19.6,6.5-39.33,17.78,2.66c-2.06,13.26-4.06,26.54-6.27,39.78l-3.58,19.82-1.8,9.91-.9,5-1,4.94-4,19.73-2.05,9.86-2.24,9.82-4.51,19.64-1.13,4.91-1.23,4.88-2.47,9.77c-1.65,6.51-3.24,13-5,19.53l-5.35,19.42L1805,1673l-2.9,9.65-5.81,19.3c-2,6.41-4.12,12.79-6.18,19.18l-3.12,9.58c-1,3.19-2.2,6.35-3.3,9.52l-6.65,19-7,18.88c-1.19,3.14-2.31,6.31-3.56,9.43l-3.72,9.36-3.73,9.36-1.88,4.68-2,4.64-7.85,18.56-8.22,18.4c-2.71,6.15-5.69,12.17-8.54,18.26s-5.87,12.08-8.86,18.1l-4.51,9-4.67,8.93-4.67,8.92-4.87,8.83c-13,23.51-26.84,46.56-41.8,68.88-7.5,11.14-15.37,22-23.5,32.74a389.64,389.64,0,0,1-25.89,31Z"/><path class="cls-6" d="M1195.44,1661.75c2.43,8,5.06,16.09,7.72,24.11s5.4,16.06,8.22,24.06q8.4,24,17.55,47.76,18.24,47.52,39.75,93.7,10.89,23,22.78,45.49c8,14.93,16.47,29.64,25.44,44a478.45,478.45,0,0,0,29.19,41.56c10.5,13.26,21.87,25.91,34.72,36.92l-1.86,2.26c-13.45-10.7-25.44-23.1-36.57-36.13a482.15,482.15,0,0,1-31.07-41c-9.6-14.19-18.67-28.73-27.33-43.5s-16.78-29.86-24.67-45q-23.49-45.66-43.55-93-10.1-23.6-19.47-47.52c-3.14-8-6.18-16-9.19-24s-5.93-16-8.78-24.27Z"/><path class="cls-7" d="M1007.88,3710.5l-41.74,59.32L879.9,3690l-18-16.62-15.19-14.06-67.87-62.82-24.43,63.14-27.34,70.63-28,72.23H560.72c.26-13.85-.58-26.7-2.84-38-10-50.17-179.46-105.93-327.46-145.45-32.25-8.62-63.49-16.46-91.83-23.31-8.7-2.1-17.13-4.11-25.23-6l-7.84-1.83,21.12-65.74,2.75-8.58h0l5.48-17.07,10.1-19.58,12-23.3,1.86-3.59,1.27-2.47,34.12-2.63,61.49-4.73,4.78-.36,5.14-.4,103.22-7.94,405,117,84.8,58.71L893.09,3631Z"/><path class="cls-4" d="M279.88,3458.5s-7,20.05-17.41,52.69c-6.41,20.12-14.09,45-22.19,73-3.24,11.17-6.55,22.83-9.86,34.87-15.64,56.71-31.56,121.75-42,183.45H36.56l69-214.61,21.12-65.74,2.75-8.58h0l5.48-17.07,10.1-19.58,12-23.3,5.32-1.24,31.93-7.45,50.83-11.84,6.8-1.59,8.64,8.34,12,11.57Z"/><polygon class="cls-5" points="165.38 3494 153.56 3538.88 138.59 3595.74 84.15 3802.5 36.56 3802.5 105.52 3587.89 126.64 3522.15 129.39 3513.57 129.4 3513.57 134.88 3496.5 144.98 3476.92 165.38 3494"/><path class="cls-8" d="M3167.88,3187.5l-14.92,7.77c-6.53,3.4-15,7.79-24.87,12.92l-2.39,1.24-.54.28-2.2,1.14-10.87,5.65h0l-.08,0-2.88,1.49-1.93,1h0l-.94.48-.95.49-1.91,1-9.35,4.84-6.79,3.52-6,3.12-11.13,5.76-5.68,2.93-15.33,7.91-5.69,2.94-.46.23-6.19,3.19-4.1,2.12-7.23,3.72c-22.94,11.8-46.36,23.79-68.31,35l-3.46,1.75c-14.17,7.21-27.69,14.05-40,20.22l-3.85,1.93L2906,3322l-3.33,1.66-5.12,2.55c-2.26,1.12-4.45,2.21-6.58,3.25l-2.52,1.25c-4.15,2-8,3.94-11.64,5.69l-1.24.6-4.91,2.36-1.74.82c-2.78,1.33-5.3,2.51-7.54,3.54l-.91.41-1.61.74-1.1.49c-2,.88-3.62,1.59-4.92,2.11l-.74.28a15.11,15.11,0,0,1-2.23.73c-15,3-125,44-125,44l-11,4s33.94,271.5,71.43,406H1848.45l.13.29-34.18-.29H828l.85-6.66,6.06-47.34s-2.86-.39-8.27-1.19c-15.3-2.24-51-7.77-99.5-17-120.77-23.07-321.33-69.33-486.83-146.09a976.44,976.44,0,0,1-86.72-45.3q-10.06-6-19.78-12.13-3.6-2.3-7.14-4.6c-35.51-23.14-67-48.32-92.76-75.65-7.42-7.88-7.28-25.4-13.71-33.62q-6-7.59-11.29-15.38l.13-.34.16-.41c.37-1,1.1-2.83,2.16-5.54l.37-1c.12-.33.26-.67.4-1l.57-1.47c.39-1,.81-2.11,1.27-3.27l.7-1.81,3.29-8.44,1.17-3,2.65-6.81,1.07-2.75q2.05-5.23,4.35-11.15c.44-1.14.89-2.29,1.35-3.46l.21-.55c.85-2.18,1.73-4.42,2.62-6.72.23-.57.46-1.15.68-1.73,5-12.82,10.71-27.41,17-43.5.78-2,1.56-4,2.36-6l2.52-6.45.15-.37,1.36-3.47c.45-1.16.91-2.33,1.37-3.5s.92-2.36,1.39-3.55q3.06-7.84,6.28-16l1.11-2.83c8.27-21.07,17.19-43.8,26.61-67.73q1.68-4.26,3.38-8.58c5.69-14.44,11.54-29.3,17.53-44.47,1.09-2.75,2.18-5.52,3.28-8.29q1.92-4.85,3.85-9.73c.6-1.54,1.21-3.07,1.82-4.61q3.64-9.22,7.35-18.58c1.07-2.71,2.14-5.43,3.23-8.15,9.62-24.3,19.48-49.12,29.43-74.1l3.21-8.06c7.75-19.45,15.56-39,23.35-58.43l2.42-6c13-32.47,26-64.66,38.61-95.79.77-1.89,1.52-3.75,2.29-5.63.35-.88.71-1.76,1.07-2.64q1.67-4.08,3.3-8.13,5.85-14.35,11.56-28.34,1.14-2.78,2.26-5.54,3.13-7.65,6.22-15.18l1.78-4.33q1.1-2.64,2.17-5.28c1-2.53,2.08-5,3.11-7.56,1.17-2.82,2.33-5.64,3.48-8.43l2.68-6.49q3.81-9.21,7.52-18.13,1.67-4,3.32-8c16.59-39.82,31.51-74.85,43.77-102.5.52-1.15,1-2.29,1.52-3.41l.8-1.8,1.95-4.35c6.42-14.27,12-26.21,16.56-35.37.41-.83.82-1.64,1.22-2.42,1.17-2.3,2.27-4.41,3.29-6.31,2-3.66,3.64-6.54,5-8.6l.44-.65c.32-.45.62-.86.9-1.21,35-44,146-264,164-278,.56-.44,1.55-1.16,3-2.15l1.43-1,2.39-1.66,1.26-.88,4.22-2.9,1.55-1.07.08-.06,1.82-1.24,1-.68,1.58-1.08,7.55-5.15,1.37-.93,2.12-1.44,1.3-.88,2.68-1.82,1.37-.93,1.4-.95,1.57-1.07,3.25-2.2,1.67-1.13c9.52-6.45,20.39-13.8,32.38-21.9l4.28-2.89.54-.36,3.83-2.59,46.11-31.11,4.66-3.15c.44-.29.89-.59,1.33-.9l3.92-2.64,15.86-10.7,2.25-1.52.73-.49,4.13-2.79c22.76-15.36,46.87-31.64,71.59-48.36l5.31-3.59q12-8.15,24.23-16.4l14.79-10,9.66-6.55,6.13-4.16c47-31.87,94.14-64,136.85-93.35q3.3-2.25,6.54-4.5l8.64-6q8.79-6,17.26-11.91l10.32-7.15q5.24-3.63,10.3-7.16,2.35-1.62,4.67-3.24l6-4.18,11.92-8.32,3.24-2.28,3.7-2.59q10.39-7.3,19.78-14l5.91-4.2,4.9-3.49c11.45-8.19,21.41-15.44,29.6-21.55q2-1.48,3.87-2.9l1.22-.92v0c0,.15.3.83.75,2,.2.51.43,1.11.71,1.8l.55,1.34c.13.33.28.68.43,1l.48,1.14.55,1.27c.54,1.26,1.16,2.65,1.84,4.15l1.1,2.37a4.54,4.54,0,0,0,.21.45c.16.33.31.67.47,1q1.07,2.25,2.31,4.77c.29.58.58,1.18.89,1.79,2,4,4.33,8.42,7,13.22.66,1.18,1.34,2.39,2,3.62l.71,1.24c.45.78.9,1.56,1.37,2.35l.09.16,1.52,2.57c.22.37.44.74.68,1.12,3.32,5.54,7.05,11.44,11.21,17.62a447.61,447.61,0,0,0,55,66.7c55.48,55.46,141.35,113,270,138.25,285,56,415-94,455-193,36-89,42-148.13,40.69-197.68,0-.26,0-.59,0-1,0-.13,0-.27,0-.42,0-1.49-.11-3.7-.19-6.38,0-.54,0-1.09,0-1.66l0-.86,0-.89c0-.11,0-.22,0-.33,0-1.1-.07-2.25-.11-3.43,0-.7,0-1.42-.06-2.15-.07-2-.13-4-.2-6.12,0-.66,0-1.33-.07-2l-.06-1.94,0-1a1.34,1.34,0,0,1,0-.2c0-.69,0-1.39-.07-2.07l0-1c0-.4,0-.79,0-1.19-.06-1.57-.11-3.1-.16-4.56l0-.85c0-1.41-.09-2.75-.14-4,0-.48,0-.94,0-1.39,0-.82-.06-1.6-.09-2.31,0-.36,0-.7,0-1,0-.49,0-.94,0-1.35s0-.52,0-.76,0-.57,0-.81,0-.43,0-.59l280.65,115.92h.07l.46.19,0,0,28,11.57,51.48,15.65,33.64,10.23h0l392.64,119.4s15.08,2.64,31.8,25l.05,0c9.32,12.5,19.16,31.14,27.18,58.9,1,3.52,2,7.19,3,11,0,0,37.86,81.19,80.36,179.2,44.72,103.14,94.58,224.92,110.87,290.31q1,3.87,1.77,7.49s89,326,132,527c0,0,28,46,35,55,1.48,1.9,2.6,5.55,3.45,10.12C3168.5,3157.66,3167.88,3187.5,3167.88,3187.5Z"/><path class="cls-9" d="M3127,3254.31c-1.68.44-3.36.88-5,1.34-111.17,30-231.54,96-287.06,238.85l62.86,308H2609.28l-134.4-416L2698.45,3294l86-35.59,233-96.41,61.83-25.59q4.32,11.45,8.56,22.23c7.13,18.2,14.06,34.92,20.73,49.93.44,1,.87,2,1.31,2.94.73,1.63,1.47,3.3,2.2,5,0,0,0,0,0,0C3116.94,3227.7,3121.93,3240.39,3127,3254.31Z"/><path class="cls-10" d="M32,3338.05C99.7,3422.74,332.38,3620,872.88,3674.5"/><path class="cls-11" d="M3167.88,3187.5l-14.92,7.77c-6.53,3.4-15,7.79-24.87,12.92l-2.39,1.24-.54.28-2.2,1.14-10.87,5.65h0l-.08,0-2.88,1.49-1.93,1-1.89,1-1.91,1-9.35,4.84-6.79,3.52-6,3.12-11.13,5.76-5.68,2.93-15.33,7.91-5.69,2.94-.46.23-6.19,3.19-4.1,2.12-7.23,3.72c-22.94,11.8-46.36,23.79-68.31,35l-3.46,1.75c-14.17,7.21-27.69,14.05-40,20.22l-3.85,1.93L2906,3322l-3.33,1.66-5.12,2.55c-2.26,1.12-4.45,2.21-6.58,3.25l-2.52,1.25c-4.15,2-8,3.94-11.64,5.69l-1.24.6-4.91,2.36-1.74.82c-2.78,1.33-5.3,2.51-7.54,3.54l-.91.41-1.61.74-1.1.49c-2,.88-3.62,1.59-4.92,2.11l-.74.28a15.11,15.11,0,0,1-2.23.73c-15,3-125,44-125,44l-11,4s33.94,271.5,71.43,406H1848.45l-166.57-382-485-547,488.3,203.39,92.7,38.61,17.47-36.95,48.27-102.08,51.91-109.78,58.81-124.37,32.54-68.82,79-113.49,64.65-92.85,33.31-47.84,28.91-41.52,21.1-30.3L2217,2314l28-299.59,15.76-168.69.71-7.65.64-6.85,51.48,15.65,33.64,10.23h0l392.64,119.4s15.08,2.64,31.81,25l0,0c9.32,12.5,19.16,31.14,27.18,58.9,1,3.52,2,7.19,3,11,0,0,37.86,81.19,80.36,179.2,44.72,103.14,94.58,224.92,110.87,290.31a.57.57,0,0,1,0,.14c.37,1.52.73,3,1.07,4.47.23,1,.45,1.93.66,2.88,0,0,89,326,132,527,0,0,28,46,35,55,1.48,1.9,2.6,5.55,3.45,10.12C3168.5,3157.66,3167.88,3187.5,3167.88,3187.5Z"/><path class="cls-12" d="M2217,2314l-121.13-66.5c-278,89-799,157-799,157l-167,241,555.3,431.39,84.25,65.45,86.45,67.16c356-444,495-822,495-822Zm-904.13,387.5-84-71s108-142,114-163c0,0,64-12,72-13C1414.88,2454.5,1315.88,2560.5,1312.88,2701.5Zm532,414-.24-.17-.29-.21-.48-.34-.3-.21-2-1.46-.55-.4c-1.3-.93-2.91-2.1-4.79-3.47l-2.85-2.08-1.37-1-1.82-1.34-1.73-1.27-1.75-1.3-1.94-1.44-1.9-1.41c-3.39-2.52-7.1-5.3-11.09-8.31l-3.48-2.64-3.73-2.84-2.56-1.95-2.19-1.68c-.47-.35-.94-.72-1.41-1.08l-3-2.34-1.28-1-1.82-1.41c-9.4-7.28-19.61-15.32-30.25-23.92l-6.88-5.58-7.85-6.44-6.52-5.42q-8.87-7.41-17.83-15.14l-2.46-2.12c-2-1.77-4.07-3.55-6.11-5.34l-3.69-3.25c-9.82-8.69-19.5-17.56-28.78-26.44,0,0,30.93,2.86,77,1.33q4.5-.15,9.18-.36,4.13-.18,8.4-.42l2.71-.15,1.57-.09c2.92-.17,5.88-.37,8.88-.58,2.41-.17,4.86-.36,7.32-.56s5-.41,7.47-.64c1.25-.11,2.52-.22,3.78-.35l3.27-.32c.31,0,.63-.05.94-.09,2.43-.24,4.87-.5,7.34-.77q7.79-.86,15.8-1.92l4-.54,4-.57,5.31-.79q2-.3,4-.63c2.28-.35,4.56-.72,6.86-1.11l3.91-.67c2.61-.45,5.23-.93,7.86-1.42l3-.56,4.09-.8,2.83-.57c1.66-.34,3.32-.68,5-1l3.67-.78c2.75-.6,5.5-1.23,8.27-1.87l4.25-1q7.88-1.91,15.78-4l2.86-.79c1.74-.48,3.47-1,5.21-1.48q2-.57,4-1.17,2.63-.77,5.25-1.59l1-.31c1-.31,2-.62,3-.95l2.29-.74c2.11-.68,4.23-1.38,6.34-2.1l2-.67c2.34-.8,4.69-1.63,7-2.48l1.56-.57c1-.37,2.08-.76,3.12-1.15,1.39-.51,2.77-1,4.15-1.57l2.78-1.09,2.33-.92,2.07-.83,1.7-.7q1.88-.76,3.75-1.56S1895.88,3057.5,1844.88,3115.5Zm210.42-332.89a2.68,2.68,0,0,1,0,.49,0,0,0,0,1,0,0,.06.06,0,0,1,0,.06q0,.33,0,.66a.11.11,0,0,1,0,.08c0,.44,0,.88-.08,1.32l0,.35c0,.3-.05.6-.09.91s0,.44-.07.66-.09.73-.14,1.1-.1.76-.16,1.14c0,.16-.05.31-.08.47-.07.45-.15.91-.24,1.36q-.18,1-.42,2c-.08.37-.16.73-.26,1.11s-.19.8-.29,1.21c-.16.62-.34,1.26-.52,1.9-.11.38-.23.76-.36,1.13s-.19.53-.29.8-.19.51-.3.76-.29.68-.45,1-.32.68-.5,1l-.49.92-.5.85c-.17.29-.35.57-.53.85s-.45.69-.69,1-.31.44-.48.66a7.76,7.76,0,0,1-.5.67c-.17.23-.35.46-.53.68-.34.42-.69.85-1.06,1.27s-.74.84-1.13,1.26c-.78.84-1.6,1.67-2.48,2.49-.29.28-.59.55-.89.82l-.66.59-.68.59-1.1.92c-.37.31-.75.62-1.14.92s-1,.78-1.5,1.16a103,103,0,0,1-8.78,5.88l-1.92,1.14-.77.44c-.25.15-.51.3-.78.44-.52.3-1,.59-1.58.88l-1.27.69-.7.37-1.6.84c-.58.3-1.16.6-1.75.89l-1.78.89c-1.06.51-2.13,1-3.21,1.53l-1.1.51-1.93.88q-2.65,1.2-5.42,2.36l-1.85.77c-.8.33-1.59.66-2.4,1s-1.61.65-2.43,1l-2.73,1.06-2.76,1-1.76.65-3.17,1.15-3.21,1.13-3.25,1.11q-3.49,1.18-7.06,2.32l-1.75.56-2.51.79c-1.8.56-3.62,1.12-5.45,1.66q-6.51,2-13.19,3.78l-5.36,1.45-4.33,1.14c-1.72.45-3.46.9-5.19,1.33-13.45,3.4-27,6.45-40.1,9.16-5.63,1.17-11.17,2.27-16.57,3.32l-4.21.8c-3,.56-5.92,1.11-8.8,1.63l-4.2.76-2.5.45-3.4.59-.41.07-2,.35c-4.7.81-9.19,1.56-13.41,2.25l-1.79.29-.4.06-3,.48c-3.75.6-7.25,1.14-10.46,1.62l-1.35.2-3.46.51-1.8.27-5.34.76-.78.11-1.85.25-1,.15-.15,0-.83.11c-2.83.38-4.7.62-5.45.71l-.2,0-.17,0c-118-103-244,11-244,11l-125-104c137,14,364-25,468-41q3.61-.55,7.17-1.07l2.67-.39c10.86-1.54,21.25-2.78,31.11-3.7l2.92-.27c3.26-.29,6.45-.54,9.59-.75q8.16-.56,15.75-.77l3-.07,2,0,1.87,0q3.74,0,7.32,0l3.09.08,1.18,0,1.36,0,1.73.08,1,.05c1.09.06,2.16.12,3.22.2l2.21.16,1.44.13,1.42.13c1,.09,1.88.18,2.81.29l1.83.22,2,.26c1.12.15,2.22.32,3.3.5l1.71.29,2,.37h0l2,.41q2.31.48,4.5,1.05c1,.27,2.06.55,3.07.85l1.48.46c.87.27,1.72.56,2.54.86l.78.28.77.29c.51.19,1,.39,1.52.6s.88.36,1.31.56c.71.3,1.4.62,2.07.95l.76.38c.55.27,1.08.55,1.6.84l1.12.64,1,.6c.33.2.65.4,1,.61.5.32,1,.65,1.45,1s.71.51,1,.77.81.63,1.2,1,.75.63,1.11,1l.12.11c.35.31.68.63,1,.95l.44.44c.19.19.36.37.53.56l.46.5c.16.17.31.35.45.52a2.32,2.32,0,0,1,.21.25c.23.26.44.52.65.79s.54.71.8,1.07a27.72,27.72,0,0,1,2.23,3.64c.09.17.17.33.25.5a24.67,24.67,0,0,1,1.17,2.68l.22.63a2.31,2.31,0,0,1,.1.28c.14.41.27.82.39,1.24.06.19.12.39.17.59.14.49.27,1,.38,1.51s.16.75.23,1.14.09.5.13.76.09.51.12.76.07.48.09.72c.07.5.12,1,.15,1.54s.07.93.09,1.41c0,.24,0,.47,0,.71Q2055.33,2781.64,2055.3,2782.61Zm111.46-167.28-.12-.12-.66-.66q-.14-.15-.3-.3l-1-1c-.13-.12-.26-.24-.39-.38-1-.92-2.15-2-3.51-3.21l-1.73-1.52c-1.21-1-2.54-2.15-4-3.32l-.74-.6c-1.91-1.54-4-3.17-6.34-4.87l-2.33-1.7c-1.34-1-2.72-1.93-4.17-2.92l-1.08-.73-1.11-.74c-.56-.38-1.14-.76-1.72-1.13s-1.17-.77-1.76-1.14l-1.72-1.09c-.8-.51-1.61-1-2.43-1.51l-2.52-1.51-1.29-.76-2.22-1.29-2.29-1.29c-.58-.33-1.17-.65-1.76-1l-2.42-1.31q-2.46-1.32-5-2.61l-2.43-1.21c-1-.5-2-1-3.07-1.48l-1-.49-2.09-1c-1.35-.62-2.71-1.24-4.11-1.84l-1.18-.52-1.2-.51-1.47-.62c-1-.42-2-.82-3-1.23l-3-1.18c-1.14-.46-2.29-.9-3.46-1.33l-1.64-.61c-1.41-.52-2.84-1-4.29-1.54-1.14-.4-2.3-.79-3.47-1.18l-3.36-1.1-3.08-1c-2.06-.63-4.17-1.25-6.3-1.85-1.49-.42-3-.83-4.51-1.23l-4.14-1.06-2.8-.68c-1.57-.37-3.16-.74-4.76-1.09q-9.64-2.11-20.08-3.69l-2.22-.33-1.64-.22-2-.27-2-.24-2.68-.32c-.9-.11-1.8-.2-2.71-.3q-2.73-.28-5.5-.53l-2.49-.21c-1.42-.11-2.85-.22-4.3-.31l-2.26-.14c-1.84-.12-3.69-.21-5.57-.29s-3.58-.14-5.39-.18a376.85,376.85,0,0,0-79,6.58c-172,32-419,88-417-22s380-206,468-49l8,20,159.68-37.34,41.32-9.66s-.35-2.47-1.2-7.15c-.06-.35-.13-.71-.2-1.08,0-.19-.07-.38-.1-.57s-.13-.65-.19-1c-.34-1.77-.73-3.78-1.19-6-.16-.79-.33-1.6-.51-2.45s-.36-1.67-.55-2.54c-.08-.39-.17-.79-.26-1.2q-.63-2.9-1.39-6.14c-.26-1.14-.53-2.31-.82-3.52-.15-.63-.31-1.27-.47-1.93-.3-1.26-.62-2.55-.95-3.88l-.18-.74c-.14-.58-.29-1.16-.44-1.75-.31-1.2-.63-2.43-.95-3.68-.18-.71-.37-1.42-.56-2.14s-.39-1.46-.58-2.2c-.28-1.06-.57-2.14-.87-3.23s-.66-2.4-1-3.62q-1.62-5.88-3.53-12.29c-.25-.86-.51-1.72-.77-2.59s-.55-1.84-.84-2.77q-.69-2.28-1.42-4.62-1.45-4.69-3.06-9.62c-.54-1.65-1.08-3.31-1.64-5q-2.94-8.82-6.33-18.32l50.9,30.3,75.1,44.7s-98,188-100,194C2167.88,2616.5,2167.51,2616.09,2166.76,2615.33Z"/><path class="cls-12" d="M2217,2314l-121.13-66.5c-278,89-799,157-799,157l-167,241,555.3,431.39,84.25,65.45,86.45,67.16c356-444,495-822,495-822Zm-904.13,387.5-84-71s108-142,114-163c0,0,64-12,72-13C1414.88,2454.5,1315.88,2560.5,1312.88,2701.5Zm532,414-.24-.17-.29-.21-.48-.34-.3-.21-2-1.46-.55-.4c-1.3-.93-2.91-2.1-4.79-3.47l-2.85-2.08-1.37-1-1.82-1.34-1.73-1.27-1.75-1.3-1.94-1.44-1.9-1.41c-3.39-2.52-7.1-5.3-11.09-8.31l-3.48-2.64-3.73-2.84-2.56-1.95-2.19-1.68c-.47-.35-.94-.72-1.41-1.08l-3-2.34-1.28-1-1.82-1.41c-9.4-7.28-19.61-15.32-30.25-23.92l-6.88-5.58-7.85-6.44-6.52-5.42q-8.87-7.41-17.83-15.14l-2.46-2.12c-2-1.77-4.07-3.55-6.11-5.34l-3.69-3.25c-9.82-8.69-19.5-17.56-28.78-26.44,0,0,30.93,2.86,77,1.33q4.5-.15,9.18-.36,4.13-.18,8.4-.42l2.71-.15,1.57-.09q4.38-.27,8.88-.58c2.41-.17,4.86-.36,7.32-.56s5-.41,7.47-.64c1.25-.11,2.52-.22,3.78-.35l3.27-.32c.31,0,.63-.05.94-.09,2.43-.24,4.87-.5,7.34-.77q7.79-.86,15.8-1.92l4-.54,4-.57,5.31-.79q2-.3,4-.63c2.28-.35,4.56-.72,6.86-1.11l3.91-.67c2.61-.45,5.23-.93,7.86-1.42l3-.56,4.09-.8,2.83-.57c1.66-.34,3.32-.68,5-1l3.67-.78c2.75-.6,5.5-1.23,8.27-1.87l4.25-1q7.88-1.91,15.78-4l2.86-.79c1.74-.48,3.47-1,5.21-1.48q2-.57,4-1.17,2.63-.77,5.25-1.59l1-.31c1-.31,2-.62,3-.95l2.29-.74c2.11-.68,4.23-1.38,6.34-2.1l2-.67c2.34-.8,4.69-1.63,7-2.48l1.56-.57c1-.37,2.08-.76,3.12-1.15,1.39-.51,2.77-1,4.15-1.57l2.78-1.09,2.33-.92,2.07-.83,1.7-.7q1.88-.76,3.75-1.56S1895.88,3057.5,1844.88,3115.5Zm210.42-332.89a2.68,2.68,0,0,1,0,.49,0,0,0,0,1,0,0,.06.06,0,0,1,0,.06q0,.33,0,.66a.11.11,0,0,1,0,.08c0,.44,0,.88-.08,1.32l0,.35c0,.3-.05.6-.09.91s0,.44-.07.66-.09.73-.14,1.1-.1.76-.16,1.14c0,.16-.05.31-.08.47-.07.45-.15.91-.24,1.36q-.18,1-.42,2c-.08.37-.16.73-.26,1.11s-.19.8-.29,1.21c-.16.62-.34,1.26-.52,1.9-.11.38-.23.76-.36,1.13s-.19.53-.29.8-.19.51-.3.76-.29.68-.45,1-.32.68-.5,1l-.49.92-.5.85c-.17.29-.35.57-.53.85s-.45.69-.69,1-.31.44-.48.66a7.76,7.76,0,0,1-.5.67c-.17.23-.35.46-.53.68-.34.42-.69.85-1.06,1.27s-.74.84-1.13,1.26c-.78.84-1.6,1.67-2.48,2.49-.29.28-.59.55-.89.82l-.66.59-.68.59-1.1.92c-.37.31-.75.62-1.14.92s-1,.78-1.5,1.16a103,103,0,0,1-8.78,5.88l-1.92,1.14-.77.44c-.25.15-.51.3-.78.44-.52.3-1,.59-1.58.88l-1.27.69-.7.37-1.6.84c-.58.3-1.16.6-1.75.89l-1.78.89c-1.06.51-2.13,1-3.21,1.53l-1.1.51-1.93.88q-2.65,1.2-5.42,2.36l-1.85.77c-.8.33-1.59.66-2.4,1s-1.61.65-2.43,1l-2.73,1.06-2.76,1-1.76.65-3.17,1.15-3.21,1.13-3.25,1.11q-3.49,1.18-7.06,2.32l-1.75.56-2.51.79c-1.8.56-3.62,1.12-5.45,1.66q-6.51,2-13.19,3.78l-5.36,1.45-4.33,1.14c-1.72.45-3.46.9-5.19,1.33-13.45,3.4-27,6.45-40.1,9.16-5.63,1.17-11.17,2.27-16.57,3.32l-4.21.8c-3,.56-5.92,1.11-8.8,1.63l-4.2.76-2.5.45-3.4.59-.41.07-2,.35c-4.7.81-9.19,1.56-13.41,2.25l-1.79.29-.4.06-3,.48c-3.75.6-7.25,1.14-10.46,1.62l-1.35.2-3.46.51-1.8.27-5.34.76-.78.11-1.85.25-1,.15-.15,0-.83.11c-2.83.38-4.7.62-5.45.71l-.2,0-.17,0c-118-103-244,11-244,11l-125-104c137,14,364-25,468-41q3.61-.55,7.17-1.07l2.67-.39c10.86-1.54,21.25-2.78,31.11-3.7l2.92-.27c3.26-.29,6.45-.54,9.59-.75q8.16-.56,15.75-.77l3-.07,2,0,1.87,0q3.74,0,7.32,0l3.09.08,1.18,0,1.36,0,1.73.08,1,.05c1.09.06,2.16.12,3.22.2l2.21.16,1.44.13,1.42.13c1,.09,1.88.18,2.81.29l1.83.22,2,.26c1.12.15,2.22.32,3.3.5l1.71.29,2,.37h0l2,.41q2.31.48,4.5,1.05c1,.27,2.06.55,3.07.85l1.48.46c.87.27,1.72.56,2.54.86l.78.28.77.29c.51.19,1,.39,1.52.6l1.31.56c.71.3,1.4.62,2.07.95l.76.38c.55.27,1.08.55,1.6.84l1.12.64,1,.6c.33.2.65.4,1,.61.5.32,1,.65,1.45,1s.71.51,1,.77.81.63,1.2,1,.75.63,1.11,1l.12.11c.35.31.68.63,1,.95l.44.44c.19.19.36.37.53.56l.46.5c.16.17.31.35.45.52a2.32,2.32,0,0,1,.21.25c.23.26.44.52.65.79s.54.71.8,1.07a27.72,27.72,0,0,1,2.23,3.64c.09.17.17.33.25.5a24.67,24.67,0,0,1,1.17,2.68l.22.63a2.31,2.31,0,0,1,.1.28c.14.41.27.82.39,1.24.06.19.12.39.17.59.14.49.27,1,.38,1.51s.16.75.23,1.14.09.5.13.76.09.51.12.76.07.48.09.72c.07.5.12,1,.15,1.54s.07.93.09,1.41c0,.24,0,.47,0,.71Q2055.33,2781.64,2055.3,2782.61Zm111.46-167.28-.12-.12-.66-.66q-.14-.15-.3-.3l-1-1c-.13-.12-.26-.24-.39-.38-1-.92-2.15-2-3.51-3.21l-1.73-1.52c-1.21-1-2.54-2.15-4-3.32l-.74-.6c-1.91-1.54-4-3.17-6.34-4.87l-2.33-1.7c-1.34-1-2.72-1.93-4.17-2.92l-1.08-.73-1.11-.74c-.56-.38-1.14-.76-1.72-1.13s-1.17-.77-1.76-1.14l-1.72-1.09c-.8-.51-1.61-1-2.43-1.51l-2.52-1.51-1.29-.76-2.22-1.29-2.29-1.29c-.58-.33-1.17-.65-1.76-1l-2.42-1.31q-2.46-1.32-5-2.61l-2.43-1.21c-1-.5-2-1-3.07-1.48l-1-.49-2.09-1c-1.35-.62-2.71-1.24-4.11-1.84l-1.18-.52-1.2-.51-1.47-.62c-1-.42-2-.82-3-1.23l-3-1.18c-1.14-.46-2.29-.9-3.46-1.33l-1.64-.61c-1.41-.52-2.84-1-4.29-1.54-1.14-.4-2.3-.79-3.47-1.18l-3.36-1.1-3.08-1c-2.06-.63-4.17-1.25-6.3-1.85-1.49-.42-3-.83-4.51-1.23l-4.14-1.06-2.8-.68c-1.57-.37-3.16-.74-4.76-1.09q-9.64-2.11-20.08-3.69l-2.22-.33-1.64-.22-2-.27-2-.24-2.68-.32c-.9-.11-1.8-.2-2.71-.3q-2.73-.28-5.5-.53l-2.49-.21c-1.42-.11-2.85-.22-4.3-.31l-2.26-.14c-1.84-.12-3.69-.21-5.57-.29s-3.58-.14-5.39-.18a376.85,376.85,0,0,0-79,6.58c-172,32-419,88-417-22s380-206,468-49l8,20,159.68-37.34,41.32-9.66s-.35-2.47-1.2-7.15c-.06-.35-.13-.71-.2-1.08,0-.19-.07-.38-.1-.57s-.13-.64-.19-1c-.34-1.77-.73-3.78-1.19-6-.16-.79-.33-1.6-.51-2.45s-.36-1.67-.55-2.54c-.08-.39-.17-.79-.26-1.2q-.63-2.9-1.39-6.14c-.26-1.14-.53-2.31-.82-3.52-.15-.63-.31-1.27-.47-1.93-.3-1.26-.62-2.55-.95-3.88l-.18-.74c-.14-.58-.29-1.16-.44-1.75-.31-1.2-.63-2.43-.95-3.68-.18-.71-.37-1.42-.56-2.14s-.39-1.46-.58-2.2c-.28-1.06-.57-2.14-.87-3.23s-.66-2.4-1-3.62q-1.62-5.88-3.53-12.29c-.25-.86-.51-1.72-.77-2.59s-.55-1.84-.84-2.77q-.69-2.28-1.42-4.62-1.45-4.69-3.06-9.62c-.54-1.65-1.08-3.31-1.64-5q-2.94-8.82-6.33-18.32l50.9,30.3,75.1,44.7s-98,188-100,194C2167.88,2616.5,2167.51,2616.09,2166.76,2615.33Z"/><path d="M1112.88,2932.5c-52,30-120,98-120,98l74,7-79,18-62,429L893.09,3631l-13.19,59-18,80.5v32H829.26l-.44-6.66,6.06-47.34s-2.86-.39-8.27-1.19L844,3671.42l2.77-12.1,11.93-52.11,43.2-188.71-132-237,143,169,53-290-213-359c36.81,24.87,193.36,262.51,195,265-.4-2.25-29-160.9-23-149s47,172,47,172l142-66Z"/><path class="cls-10" d="M2705.9,3332.25C2789.38,3306,2925.38,3261,3141.38,3126"/><path class="cls-13" d="M2350.88,2387.5s-139,378-495,822l-86.45-67.16,8.45-26.84,17.47-36.95c29,22.39,49.53,36.95,49.53,36.95,51-58,134-175,134-175-44.41,18.75-91.74,29.71-135.26,36l51.91-109.78c67.47-14,148.2-37.17,157.35-69.19,13-45.62-27-60.05-98.54-55.18l32.54-68.82,79-113.49c68.32,19.23,102,56.49,102,56.49,2-6,100-194,100-194l-75.1-44.7,21.1-30.3L2217,2314Z"/><polygon class="cls-14" points="2735.88 3305.5 2834.88 3209.5 3096.88 3121.5 2735.88 3305.5"/><path class="cls-15" d="M2541.34,2347.3c10.54,20.79,20.24,42,29.82,63.21q7.08,16,14,32c2.34,5.34,4.52,10.74,6.78,16.11l6.66,16.16c4.46,10.76,8.74,21.6,13,32.47l6.29,16.31,6.19,16.35q12.14,32.8,23.24,66c3.59,11.1,7.24,22.19,10.67,33.35,1.74,5.57,3.5,11.14,5.14,16.74s3.34,11.2,4.95,16.81c6.35,22.49,12.38,45.1,17.56,67.93s9.6,45.88,13,69.13c3.25,23.26,5.61,46.76,5.38,70.43l-12.1.32a616.22,616.22,0,0,0-8.82-68.26c-.52-2.83-.94-5.67-1.51-8.5l-1.67-8.48-1.67-8.47c-.53-2.83-1.22-5.64-1.82-8.45l-1.86-8.45c-.62-2.82-1.17-5.64-1.86-8.45l-4-16.85c-5.56-22.41-11.35-44.79-17.69-67.05-3.29-11.09-6.33-22.26-9.71-33.33s-6.73-22.16-10.15-33.23q-20.85-66.32-43.77-132.1c-3.78-11-7.68-21.91-11.54-32.87s-7.72-21.91-11.68-32.84c-7.77-21.91-15.76-43.74-23.7-65.63Z"/><path class="cls-15" d="M2697.88,3126q1.14,34.3,2.46,68.45c1,22.77,2,45.5,3.39,68.18s3.32,45.28,5.38,67.83c.55,5.63,1.08,11.26,1.49,16.91l.31,4.24.14,2.12.18,2.11q.39,4.23.69,8.47c.23,2.82.38,5.66.55,8.5s.35,5.67.55,8.51c.39,5.67.68,11.38.68,17.18l-4.64.94a227.09,227.09,0,0,1-9.62-33.33c-1.23-5.64-2.39-11.31-3.19-17s-1.69-11.39-2.37-17.11c-1.12-11.45-2.06-22.92-2.63-34.39s-1-23-1.29-34.42c-.36-22.95-.06-45.88,1.06-68.77.31-5.72.56-11.44.94-17.15s.8-11.43,1.28-17.14,1-11.41,1.59-17.11,1.27-11.39,2.05-17.07Z"/><path class="cls-10" d="M1033.6,1921.53c54.63,90.38,206.48,279.47,520.78,279.47,382.65,0,451.54-238.21,452.45-447.4"/><path class="cls-5" d="M3167.88,3187.5l-14.92,7.77c-3-25.08-9-55-21.08-69.77-23-28-35-75-35-75-14.25-85.51-65.22-324.94-134-533-71.18-215.33-160-398-160-398s-28-74-56-108c-24.64-29.92-644-213.94-792.31-257.68-.14-5.55-1.39-45-1.69-50.32l309.23,127.72,464.77,142.28s59,11,81,99c0,0,160,355,187,476,0,0,89,326,132,527,0,0,28,46,35,55C3176.88,3170.5,3167.88,3187.5,3167.88,3187.5Z"/><path class="cls-5" d="M1133.88,1939.5c-18,12.58-389.91,222.35-531,339.44-15.86,13.16,45.2,71.15,36,81.56-12,13.59-101.11-10.24-118.26,18-112.82,185.7-314.74,634-314.74,634l-160.95,347-24.76,53.38q-6-7.59-11.29-15.38s312-804,347-848,146-264,164-278,476-319,579-397c0,0,6.52,18.62,23,46.31Z"/><path class="cls-6" d="M3272.15,3790.22c-1.5-10-3.18-19.84-4.93-29.7-3.5-19.71-7.29-39.32-11.22-58.9q-11.82-58.73-25.17-117.07t-28-116.43c-9.83-38.7-20.16-77.28-31.38-115.66-5.61-19.19-11.46-38.32-17.68-57.37s-12.8-38-20.16-56.79q-2.76-7-5.7-14-1.47-3.5-3-7l-.36-.82.45-.24a44.12,44.12,0,0,1,5.7-2.4c4.3-1.53,9.07-2.91,13.92-4.43a140.6,140.6,0,0,0,15-5.45,59.32,59.32,0,0,0,7.71-4.08,37.69,37.69,0,0,0,3.85-2.76c.64-.53,1.27-1.07,1.89-1.66.29-.27.67-.65,1-1s.67-.75,1-1.13a24.75,24.75,0,0,0,4.89-10.2,36.91,36.91,0,0,0,.83-9.67,74.77,74.77,0,0,0-2.83-16.63c-1.4-5.16-3.07-10.07-4.74-14.82l-2.43-7-.15-.42a6.88,6.88,0,0,0-.36-1c-.29-.65-.37-.79-.49-1l-.29-.57-1-1.81-1.92-3.33c-5.08-8.68-10.19-17.2-15.28-25.76s-10.22-17.14-15-25.59c-.54-1-1.07-1.94-1.51-2.78l-.11-.87-.9-7.49c-.56-5-1.28-10-2-15q-4.22-29.91-10.65-59.44c-4.26-19.66-9.2-39.11-14.39-58.44s-10.64-38.52-16.1-57.68l-8.17-28.74c-1.37-4.79-2.69-9.57-4-14.34l-3.93-14.34c-10.18-38.33-19.28-77-28.29-115.84s-18-77.7-28.18-116.4c-2.48-9.69-5.17-19.34-7.81-29-1.29-4.84-2.75-9.63-4.12-14.45s-2.73-9.64-4.24-14.43l-4.42-14.38-1.11-3.59-1.18-3.58-2.35-7.15c-3.07-9.59-6.41-19-9.68-28.41q-39.24-113.2-85.11-223.89Q2875.25,2190,2851,2135.2c-16.12-36.3-32.59-72.33-50-108.18a60.16,60.16,0,0,0-10.06-19.15,97.26,97.26,0,0,0-14.79-15.25,142.72,142.72,0,0,0-16.75-12.07,179.8,179.8,0,0,0-17.92-9.76,182.74,182.74,0,0,0-18.88-7.73q-2.41-.84-4.88-1.6l-2.47-.74c-.8-.23-1.58-.43-2.31-.66l-9.26-2.81-37.29-11.36q-74.58-22.77-149.11-45.72t-148.7-47.07q-74.13-24.19-147.84-49.61c-49.11-17-98.07-34.46-146.48-53.23-24.18-9.42-48.25-19.12-71.92-29.58-11.83-5.24-23.59-10.63-35-16.45-5.73-2.9-11.4-5.9-16.89-9.07a141.07,141.07,0,0,1-15.63-10.18c-1.17-.92-2.29-1.85-3.33-2.8s-2-2-3-3.09a75.81,75.81,0,0,1-5.58-7,109,109,0,0,1-9.13-16,201.83,201.83,0,0,1-12.31-35.61,365.69,365.69,0,0,1-7.26-37.56c-1.83-12.67-3.14-25.45-4.09-38.27-1.88-25.64-2.35-51.44-1.87-77.22.26-12.89.73-25.78,1.48-38.64q.49-8.62,1.14-17.22s0,0,0,0l.15-2,.81-9.61c.28-3.17.59-6.43.93-9.48h0l.87-12-11.86-.77q-14.22-.92-28.4-1.75h0q-30.66-1.82-61.31-3.29h0q-16.77-.81-33.54-1.55-61.64-2.7-123.32-4.27-55.06-1.36-110.17-1.65l-13.27,0c-41.16,0-82.35.47-123.55,1.87q-25.75.9-51.52,2.3h0c-24,1.34-48.07,3.11-72.1,5.51-20.6,2.08-41.2,4.63-61.77,8.09-10.28,1.74-20.56,3.7-30.82,6s-20.49,5.06-30.68,8.46c-5.09,1.71-10.17,3.6-15.22,5.77a124.33,124.33,0,0,0-15,7.6,71.48,71.48,0,0,0-14.28,11,46.29,46.29,0,0,0-6.19,7.8,40.49,40.49,0,0,0-2.49,4.66,36.88,36.88,0,0,0-1.84,5.14,34.38,34.38,0,0,0-1.15,10.93,38.9,38.9,0,0,0,2,10.26,49.35,49.35,0,0,0,1.79,4.6c.34.72.67,1.45,1,2.16l1.05,2c1.18,2.16,2.33,4.35,3.45,6.54,4.48,8.81,8.5,17.91,12.15,27.19a451.44,451.44,0,0,1,17.86,57.44q1.54,6.33,3,12.7c3.41,15.47,6.22,31.11,8.57,46.83q1.28,8.54,2.35,17.08c.06.41.12.82.16,1.23q2.64,21,4.12,42.12,2.15,30.35,2.18,60.86.07,15.24-.38,30.48t-1.26,30.5l-.45,7.63v0c-.07.25-.2.65-.34,1.07-.31.91-.74,2-1.17,3-1.81,4.25-4,8.66-6.35,12.9s-4.85,8.43-7.5,12.28c-1.33,1.92-2.7,3.77-4.07,5.38a22.22,22.22,0,0,1-3.69,3.64l-51,34.37-25.52,17.18c-4.28,2.82-8.46,5.81-12.64,8.78l-12.57,8.9-100.51,71.21L892,2006.46l-6.28,4.45c-2.11,1.46-4.25,2.87-6.38,4.31l-12.78,8.57-51.13,34.31L713.2,2126.7,508.67,2263.92h0L507,2265l-1,1.71-172,297-.3.53-.23.57-332,828L0,3396.55l1.92,3.52,33,60.5.84,1.55,1.39,1.08,79.3,61.84-90,277.46H44.35l69-212.78,20.42-63,.69-2.13,1.83-5.66-4.69-3.66-2.21-1.73h0L49,3450.88l.85,1.55-2.23-2.63,1.38,1.08-25.1-46-5.13-9.41-1.49,3.71-.43-7.23,1.92,3.52L38.59,3346,349,2571.76l-.29.5.53-1.1-.24.6L519.75,2277l-1.63,1.08h0l2.64-2.81-1,1.72,203.47-135.52,102.55-68.29L877.05,2039l12.81-8.54,2.25-1.5h0q2.08-1.37,4.14-2.77l6.3-4.43,25.19-17.72,89-62.61,11.74-8.26,8.56-6,4-2.84c4.17-2.94,8.33-5.89,12.6-8.7l.08-.05,25.62-17.12,23-15.34L1125,1868l5.65-3.77c.16-.11.22-.14.45-.31l.63-.48.63-.5c.22-.17.41-.33.57-.47.66-.58,1.34-1.18,1.9-1.76,1.21-1.17,2.22-2.31,3.22-3.46,2-2.3,3.64-4.58,5.24-6.88a160.33,160.33,0,0,0,8.6-13.95c2.62-4.75,5-9.51,7.28-14.7.53-1.25,1-2.5,1.54-3.91a2.77,2.77,0,0,0,.1-.26c.27-.77.54-1.57.81-2.56.06-.2.14-.56.2-.85s.13-.53.21-1,.13-.95.17-1.43l0-.53.48-7.74q.91-15.5,1.39-31t.49-31.1q.06-31.1-2-62.22c-.14-2.17-.3-4.34-.46-6.51q-.39-5.31-.87-10.6h0c0-.37-.06-.74-.11-1.1h0c-.35-4.12-.75-8.22-1.19-12.33h0q-1.67-15.76-4-31.44-1.52-10.47-3.33-20.93c-2.36-13.55-5.11-27.05-8.34-40.47-3.77-15.6-8.15-31.11-13.46-46.38q-2.38-6.93-5-13.77c-3.83-9.84-8.08-19.56-12.87-29.07-1.21-2.38-2.44-4.74-3.71-7.09l-.73-1.41-.63-1.31c-.37-.87-.72-1.74-1-2.58a15.48,15.48,0,0,1-.47-9.13,19.94,19.94,0,0,1,5.31-8.42,50.93,50.93,0,0,1,10.11-7.65c7.77-4.62,16.81-8.26,26.07-11.34s18.94-5.6,28.7-7.8,19.66-4.06,29.63-5.71c19.93-3.28,40.11-5.72,60.37-7.69,40.52-3.91,81.35-6,122.22-7.29q12.18-.37,24.37-.64h0q30-.69,60-.8h0q19.17-.11,38.33,0,61.43.29,122.89,2.1,5.94.16,11.89.36l1.88,0q25.41.78,50.81,1.76h0q29.16,1.13,58.28,2.5,41.76,2,83.54,4.47,11.83.7,23.66,1.48l4.15.27,0-2c.09-3.32.18-6.55.32-10l1.12,1.29,5.69,6.59,4.18,4.84-3.93-.26-5.56-.38-1.86-.12-.17,7.9c0,.45,0,.9,0,1.35h0q-.16,9.18-.17,18.34,0,6.36,0,12.71a2.61,2.61,0,0,0,0,.28q.09,13.18.45,26.37.4,14.49,1.14,29h0c.87,16.56,2.13,33.1,3.91,49.63,1.43,13.08,3.18,26.14,5.44,39.15a396.64,396.64,0,0,0,8.61,38.79,227.19,227.19,0,0,0,11.44,32.25q1.23,2.75,2.57,5.46a121,121,0,0,0,10.56,17.66,88.45,88.45,0,0,0,6.68,8.11c1.2,1.3,2.44,2.53,3.86,3.83s2.78,2.36,4.18,3.42a152.49,152.49,0,0,0,17.19,10.86c1.41.79,2.82,1.55,4.23,2.31h0c1.5.8,3,1.59,4.49,2.36q4.41,2.28,8.86,4.44c11.83,5.76,23.78,11.09,35.78,16.26,24,10.26,48.27,19.87,72.6,29.18,48.67,18.63,97.65,36.24,146.76,53.48l16.37,5.72h.07l1,.34q39.45,13.74,79,27.09c1.12.39,2.24.77,3.37,1.14h0l.11,0q14.88,5,29.77,10l18,6q48.18,16.15,96.43,32.11,25.86,8.57,51.73,17.07,74.16,24.35,148.62,47.74l37.28,11.56,9.4,2.89c.82.26,1.61.46,2.38.69l2.19.66c1.47.46,2.93.93,4.39,1.44a168.36,168.36,0,0,1,17.19,7.08q2.64,1.26,5.23,2.61a141.08,141.08,0,0,1,25.93,17,81.38,81.38,0,0,1,12.31,12.7,43.72,43.72,0,0,1,7.55,14.47l.19.71.35.71q6.48,13.39,12.83,26.89c12.68,26.92,25,54.13,37,81.38q23.93,54.08,46.31,108.83l.39,1c3.74,9.21,7.58,18.38,11.25,27.63l11,27.7,2.76,6.93,2.69,7,5.38,13.9,5.38,13.91,2.7,7,2.62,7c6.94,18.63,14,37.2,20.7,55.93l10.13,28.05,9.78,28.16c3.26,9.39,6.59,18.78,9.6,28.17l2.31,7,1.15,3.52,1.1,3.55,4.35,14.18c1.49,4.72,2.78,9.5,4.18,14.25s2.79,9.5,4.07,14.29c2.61,9.56,5.27,19.11,7.72,28.73,10,38.39,19,77.15,28,116s18.12,77.71,28.38,116.4l4,14.49c1.32,4.83,2.65,9.66,4,14.44l8.17,28.76c5.44,19.15,10.88,38.29,16,57.44s10,38.34,14.2,57.62,7.69,38.68,10.43,58.19c.68,4.88,1.39,9.76,1.94,14.66l.88,7.34.22,1.84c.11.37-.22-.5.44,2.16.22.65.41,1.07.5,1.28.25.55.42.88.6,1.23.68,1.34,1.3,2.45,1.94,3.59,5,8.89,10.12,17.38,15.22,26s10.24,17.12,15.22,25.63l1.81,3.15.81,1.45,0,.06c-.1-.31.07.07.1.18a.72.72,0,0,1-.07-.11,2.53,2.53,0,0,0,.1.28l2.5,7.15c1.63,4.64,3.17,9.17,4.38,13.62a59.43,59.43,0,0,1,2.24,12.76,20.07,20.07,0,0,1-.4,5.18,7.59,7.59,0,0,1-1.44,3.19l-.24.27c-.09.09-.14.16-.31.31s-.59.54-.92.81a21,21,0,0,1-2.21,1.58,42.22,42.22,0,0,1-5.5,2.89l-.51.22h0a124,124,0,0,1-12.59,4.53c-4.65,1.48-9.46,2.84-14.54,4.64a60.06,60.06,0,0,0-8.05,3.45,25.83,25.83,0,0,0-4.58,3,17.87,17.87,0,0,0-2.5,2.55,13,13,0,0,0-1.26,1.85,14.12,14.12,0,0,0-1,2,13.47,13.47,0,0,0-.89,5,14.73,14.73,0,0,0,.48,3.45h0q.14.52.3,1c.11.32.23.6.35.91l.3.7.37.84.74,1.67c1,2.24,1.95,4.48,2.9,6.74q2.86,6.76,5.55,13.64,2.16,5.52,4.24,11.09c5.53,14.75,10.67,29.71,15.59,44.76,6.16,18.83,12,37.8,17.54,56.85,11.15,38.11,21.44,76.52,31.24,115.06s19.05,77.23,27.89,116,17.26,77.67,25.11,116.64c3.91,19.48,7.69,39,11.16,58.52,1.73,9.76,3.4,19.52,4.87,29.26.49,3.25,1,6.51,1.38,9.74h17.14C3273.35,3798.36,3272.76,3794.29,3272.15,3790.22Z"/><path class="cls-1" d="M2015.88,1116.5c11.07,22.27,4.39,64,2,70-15.3,38.64-31.28,53.32-97,49,0,0,14,124-40,190s-124.5,158.5-124.5,158.5-73.54,111.58-162.5,176.5c-63.13,46.08-142.69,52.33-170.5,51.5a216.52,216.52,0,0,1-47-6.61c-52.44-13.25-108.16-47-178-108.39-91-80-194-219-194-219s-71.52-90.54-107.75-285.4q-2.77-14.89-5.25-30.6l-109-329s57-846,832-630c0,0,249,71,305,498l12,57s141-92,141,88c0,0-24,146-51,189C2004.51,1061.87,2003.76,1092.12,2015.88,1116.5Z"/><path class="cls-16" d="M897.88,1145.5s57-113,58-138c0,0,37,24,52,24l201.5-6.5s43,133,52,190c0,0,8,30,15-12s23-192-73-305c0,0,94-78,142-128,0,0,131,9,198-7s147-87,147-87,118,194,160,260c0,0,24,102,36,106s21-28,22-49,0-212,0-212l-117-305-173-106-405,253-344,14-15,161-29,132Z"/><path class="cls-17" d="M1406.88,824.5s7,245,61,283c0,0,21,18,5-37s-7-55-7-55,201,21,246-81,32-140,32-140l-158-35Z"/><path class="cls-17" d="M1513.38,1373c-88,52-237-30-237-30l4.6-.58a45,45,0,0,0,8.4,2.58s109,53,196-22c56.86-49,65.45-90.34,56.21-119.79l.33-.48S1601.38,1321,1513.38,1373Z"/><path class="cls-17" d="M1485.38,1323c-87,75-196,22-196,22-44.71-9.28-28.93-67.65-22.91-85.69,46.47,7.18,114.55,14.66,142.91,2.69,42.68-18,81.76-38.74,109.56-92.87C1547.77,1194.27,1569.9,1250.14,1485.38,1323Z"/><path class="cls-17" d="M1269.38,1552s74.5,29.25,148.5,19.5,135.5-39.5,135.5-39.5-9.41,64.2-60.76,101.61a131.06,131.06,0,0,1-35.9,18.43c-10.06,3.36-36.79,6.78-42.76,5.82C1388.09,1653.71,1314.88,1634.87,1269.38,1552Z"/><path class="cls-18" d="M1259.88,1001.5s-36-72-9-72,153,108,108,216-81,27-81,27S1286.88,1082.5,1259.88,1001.5Z"/><path class="cls-19" d="M1392.1,1877.09s43.16,17,86.05,11.3,78.51-22.89,78.51-22.89-5.45,37.2-35.2,58.88a76.15,76.15,0,0,1-20.8,10.68c-5.84,2-21.32,3.93-24.78,3.37C1460.89,1936,1418.46,1925.11,1392.1,1877.09Z"/><path class="cls-20" d="M1703.18,924.44c-17.2,25.44-83.8,87.56-152.72,86.89-49-.48-83-17.62-98.48-27.49.19-21.2,9-77.88,94.4-98.84C1639.92,862.06,1692.19,912.31,1703.18,924.44Z"/><path class="cls-6" d="M1268.84,1254.18c-.71,2.51-1.51,5-2.13,7.48s-1.23,5-1.75,7.57a153,153,0,0,0-2.37,15.26,106.6,106.6,0,0,0-.53,15.23,65.21,65.21,0,0,0,2.1,14.63l.48,1.74.58,1.69c.36,1.14.88,2.19,1.31,3.27a33.16,33.16,0,0,0,3.46,5.88,26.62,26.62,0,0,0,9.91,8.28,28.29,28.29,0,0,0,3,1.28c.38.16,1.31.52,1.81.7l1.76.65c2.36.83,4.75,1.65,7.17,2.38q7.24,2.23,14.66,3.9c19.77,4.4,40,5.81,59.5,5.45a273.34,273.34,0,0,0,29-1.93,170.37,170.37,0,0,0,28.14-5.82c4.6-1.32,9.06-3,13.53-4.7l6.58-2.85c1.11-.43,2.15-1,3.22-1.55l3.21-1.62c2.17-1,4.22-2.26,6.3-3.45s4.21-2.32,6.17-3.71l6-4,5.79-4.38c1.94-1.39,3.86-3.06,5.79-4.65l5.8-4.8c1.88-1.64,3.69-3.35,5.55-5s3.75-3.32,5.47-5.1l5.29-5.26c.91-.86,1.74-1.77,2.56-2.69l2.48-2.75,2.49-2.76c.87-.9,1.56-1.9,2.35-2.84,1.52-1.93,3.12-3.82,4.62-5.77a115.86,115.86,0,0,0,14.57-25.14,75.12,75.12,0,0,0,5.93-27.9,67.56,67.56,0,0,0-6.22-28.05,111.79,111.79,0,0,0-16.41-25.45l.62-.78a61.55,61.55,0,0,1,23.49,22.08,67.46,67.46,0,0,1,7,15.13c.42,1.33.86,2.67,1.26,4l.93,4.11.46,2.07.29,2.09.56,4.2a88.62,88.62,0,0,1-3.64,33.43,133.41,133.41,0,0,1-13.71,30.35c-1.45,2.34-3,4.61-4.5,6.92-.77,1.13-1.48,2.34-2.32,3.41l-2.45,3.29-2.46,3.29c-.82,1.1-1.64,2.2-2.53,3.23l-5.25,6.27c-1.7,2.15-3.63,4-5.46,6s-3.7,4-5.59,5.92l-5.81,5.65c-2,1.87-3.8,3.8-6,5.59a163.09,163.09,0,0,1-58,33.49c-21.39,7-44.08,10-66.13,8-2.75-.25-5.49-.57-8.23-.9s-5.44-.85-8.15-1.29l-8-1.61c-2.66-.66-5.32-1.27-8-2-5.26-1.42-10.48-2.93-15.61-4.67s-10.22-3.53-15.23-5.49-10-4-14.88-6.25q-3.68-1.65-7.32-3.45l-1.81-.91c-.69-.35-1-.51-1.74-.92a40.93,40.93,0,0,1-3.95-2.29l-1.9-1.28c-.61-.46-1.19-1-1.79-1.43a36.71,36.71,0,0,1-3.35-3.13,20.5,20.5,0,0,1-1.51-1.71c-.47-.6-1-1.15-1.42-1.78a38.12,38.12,0,0,1-2.44-3.79,42.67,42.67,0,0,1-3.54-8c-.39-1.39-.85-2.76-1.12-4.15l-.45-2.08-.33-2.08a73,73,0,0,1-.45-16.42,110.84,110.84,0,0,1,2.41-15.84,154,154,0,0,1,4.22-15.25c.82-2.5,1.71-5,2.65-7.42s2-4.86,3-7.27Z"/><path class="cls-6" d="M1222.83,929.62a117.55,117.55,0,0,1,11.34,12.07l2.61,3.21,2.51,3.28c1.68,2.19,3.27,4.45,4.85,6.72a279.21,279.21,0,0,1,16.94,28.5c10.25,19.61,18.82,40.44,23.36,62.26a275.85,275.85,0,0,1,5.07,32.94c.64,5.51.84,11.07,1.17,16.59.15,2.77.12,5.55.18,8.31s.13,5.53,0,8.3l-.25,8.29c0,2.75-.34,5.51-.51,8.26s-.41,5.5-.69,8.24l-1,8.2-.54,4.09c-.21,1.36-.46,2.71-.69,4.07-.48,2.71-.92,5.42-1.43,8.11-1.06,5.39-2.37,10.72-3.71,16l-1.3-.17c-.09-2.74-.1-5.46-.15-8.18v-6.1l-.08-2c-.1-2.71-.13-5.41-.2-8.11,0-1.35,0-2.7-.11-4l-.22-4-.37-8.05c-.13-2.68-.38-5.36-.57-8-.27-5.34-.9-10.66-1.37-16-1.17-10.6-2.52-21.14-4.4-31.58-.83-5.23-2-10.4-3-15.59-.53-2.59-1.17-5.16-1.75-7.74l-.86-3.87-1-3.84-.93-3.85c-.3-1.28-.6-2.57-1-3.84-.68-2.55-1.31-5.11-2-7.67-1.41-5.09-2.68-10.22-4.15-15.3-2.86-10.19-5.93-20.37-9.61-30.37-.93-2.49-1.82-5-2.84-7.47s-2-5-3-7.4l-1.56-3.69-1.65-3.66-3.32-7.31c-4.55-9.7-9.38-19.35-14.76-28.8Z"/><path class="cls-5" d="M1377.41,1805.39c-52.44-13.25-108.16-47-178-108.39-91-80-194-219-194-219s-78.27-137.64-114.5-332.5c10.9,15.57,44.79,50.5,54,81,29,96,103,285,207,369C1247.47,1672.7,1359,1789.72,1377.41,1805.39Z"/><path class="cls-6" d="M777.87,833.7c0-.54,0-1.09,0-1.64l.05-.82,0-.48.15-1.82.32-3.62.73-7.22q.78-7.2,1.69-14.38,1.82-14.36,4.09-28.63,4.51-28.55,10.61-56.8a1067.57,1067.57,0,0,1,30.27-111.48,918.55,918.55,0,0,1,43-107.29,748,748,0,0,1,57.62-100.36,605.22,605.22,0,0,1,74.21-89,529.57,529.57,0,0,1,43.58-38.38c7.58-6,15.41-11.73,23.32-17.33,4-2.72,8-5.52,12.05-8.13l6.09-4,6.17-3.83a495.56,495.56,0,0,1,105.26-48.76c4.58-1.58,9.24-2.91,13.86-4.35s9.32-2.64,14-4c4.69-1.18,9.37-2.44,14.08-3.55l7.07-1.62,3.54-.82,3.56-.73a578.36,578.36,0,0,1,57.32-9,671.14,671.14,0,0,1,115.76-2c19.26,1.27,38.46,3.27,57.57,5.89,4.77.7,9.56,1.3,14.31,2.08l14.28,2.3,14.23,2.55c4.74.87,9.45,1.86,14.18,2.78q28.33,5.76,56.31,13c4.66,1.2,9.3,2.49,14,3.74l3.49.94,1.74.47.44.12.53.16.94.29c2.43.79,4.75,1.63,7.06,2.51a256.2,256.2,0,0,1,26.72,12.22,360,360,0,0,1,49.19,31.35,429,429,0,0,1,43.94,38.16c6.9,6.81,13.52,13.9,20,21.12s12.64,14.69,18.69,22.25a556.13,556.13,0,0,1,33.47,47.44,648.05,648.05,0,0,1,52.26,103.36,827.37,827.37,0,0,1,35.15,110.19q6.86,28.09,12.12,56.52c3.47,18.95,6.4,38,9,57.07l-.07-.43,12,57-8.7-3.35h0c.88-.67,1.59-1.2,2.38-1.77s1.56-1.09,2.34-1.62c1.57-1.05,3.15-2.07,4.76-3.06q4.82-2.92,9.86-5.49a127.68,127.68,0,0,1,21.1-8.51,99.46,99.46,0,0,1,22.87-4.14,75.86,75.86,0,0,1,23.77,2.28,69.27,69.27,0,0,1,22,10.11,73.09,73.09,0,0,1,9.35,7.59c1.48,1.35,2.81,2.82,4.19,4.25s2.65,3,3.84,4.5a105.67,105.67,0,0,1,6.82,9.53c2,3.3,4,6.64,5.68,10.07a161,161,0,0,1,8.75,21l.91,2.67.87,2.9.75,2.91.64,2.9a112.9,112.9,0,0,1,1.69,11.51c.36,3.81.56,7.6.63,11.37s0,7.51-.12,11.24a307.36,307.36,0,0,1-5.22,43.91c-5.41,28.79-13.46,56.81-23,84.26-4.81,13.72-10,27.29-16,40.59-3,6.64-6.21,13.23-9.88,19.63-.92,1.6-1.89,3.19-2.88,4.76l-1.38,2.24-1.31,2.28a89.05,89.05,0,0,0-4.58,9.43,73,73,0,0,0-5.17,19.94,67.61,67.61,0,0,0,.79,20,72.3,72.3,0,0,0,6.31,18.58c.32.64.8,1.69,1.24,2.65s.78,1.94,1.18,2.91.64,1.94,1,2.91.52,1.94.78,2.91a77,77,0,0,1,1.81,11.54,136.54,136.54,0,0,1-.25,22.54c-.63,7.4-1.63,14.7-2.89,22-.33,1.82-.65,3.65-1,5.49s-.75,3.65-1.33,5.66l-.23.78-.33.91-.52,1.31-1,2.55c-.72,1.69-1.42,3.39-2.19,5.08a95.17,95.17,0,0,1-11.3,19.71,52.87,52.87,0,0,1-8.22,8.51,50.11,50.11,0,0,1-10,6.42,76.36,76.36,0,0,1-22.16,6.38,176.78,176.78,0,0,1-22.26,1.68c-7.38.13-14.7,0-22-.23l6.38-6.71h0c.3,2.39.53,4.59.75,6.87s.41,4.52.58,6.78q.49,6.78.76,13.56.55,13.54.26,27.14a367.11,367.11,0,0,1-5.17,54.23c-3.2,18-8,35.87-15.4,53a163,163,0,0,1-13.31,24.76c-1.32,2-2.66,3.92-4.08,5.82-.69,1-1.43,1.9-2.16,2.84l-2.13,2.71c-2.75,3.43-5.47,6.91-8.18,10.4-21.65,28.06-42.72,56.86-64.46,85.13s-43.84,56.35-66.53,84q-17.07,20.68-34.59,41t-35.91,40c-12.26,13.09-24.81,25.92-37.91,38.27-6.56,6.17-13.25,12.21-20.15,18s-14,11.49-21.49,16.72a247.44,247.44,0,0,1-47.78,26.16,313.11,313.11,0,0,1-51.68,16.39,340.41,340.41,0,0,1-53.55,7.72c-4.52.29-9,.45-13.59.48-2.27,0-4.56,0-6.84-.09s-4.54-.18-6.81-.33a219.05,219.05,0,0,1-27-3.39,255.28,255.28,0,0,1-51.91-15.85c-8.34-3.49-16.51-7.36-24.5-11.54s-15.86-8.6-23.57-13.25c-30.81-18.69-59.36-40.62-86.83-63.62-6.83-5.77-13.68-11.63-20.34-17.66l-5-4.52-4.93-4.59c-3.3-3-6.53-6.15-9.77-9.25q-19.41-18.66-37.84-38.22c-24.58-26.06-48.16-53-71-80.56q-17.11-20.65-33.64-41.8-8.25-10.58-16.37-21.27l-4.05-5.38-2-2.63c-.73-1-1.42-1.92-2.09-2.87-2.7-3.8-5.22-7.61-7.68-11.45a457.69,457.69,0,0,1-26.09-47.64q-11.6-24.45-21.05-49.74t-17.08-51.07c-5.11-17.19-9.67-34.52-13.86-51.92-8.39-34.79-15-69.94-20.49-105.22l.09.39-13.53-41.21-13.65-41.18q-13.71-41.16-27.65-82.28T807,915.89L792.56,874.8l-7.29-20.55Zm11-1.4,6.23,20.58,6.33,20.57,12.83,41.16q13,41.14,26.26,82.28t26.85,82.23l13.6,41.07,13.72,41,.06.18,0,.21a905.44,905.44,0,0,0,23.15,104,845.26,845.26,0,0,0,35.64,100.06q10.45,24.36,22.52,47.86c8,15.65,16.69,31,26.14,45.59,2.38,3.63,4.8,7.24,7.3,10.68.62.87,1.25,1.72,1.86,2.52l1.05,1.39,1,1.32,4,5.29q8,10.59,16.25,21.07,16.36,21,33.18,41.66c22.43,27.53,45.33,54.66,69.1,81s48.4,51.76,75,75.13,54.2,45.73,84,64.55a346.18,346.18,0,0,0,46.53,24.82,239.18,239.18,0,0,0,50,15.65,210.51,210.51,0,0,0,26,3.29c2.18.15,4.36.21,6.54.32s4.34.09,6.52.07q6.54-.08,13.12-.51c8.76-.57,17.51-1.53,26.2-2.88s17.34-3,25.89-5a291.21,291.21,0,0,0,49.85-16.66,237.06,237.06,0,0,0,45.23-26.11c7-5.18,13.67-10.84,20.22-16.68s12.91-12,19.15-18.18c12.47-12.48,24.45-25.51,36.17-38.79s23.15-26.85,34.42-40.56,22.38-27.56,33.36-41.53c22-27.9,43.52-56.21,65.1-84.53,10.8-14.14,21.6-28.31,32.53-42.4s21.83-28.21,33.07-42.19q4.21-5.25,8.52-10.46l1.07-1.3,1-1.21c.65-.81,1.32-1.6,1.93-2.45,1.28-1.64,2.48-3.34,3.68-5.05a146.41,146.41,0,0,0,12.36-22c7.08-15.48,11.94-32.17,15.36-49.18a351.88,351.88,0,0,0,6.24-52q.66-13.12.53-26.3-.06-6.58-.34-13.15c-.1-2.19-.2-4.38-.34-6.56s-.28-4.39-.47-6.43h0v-7.34l6.38.63c7.08.7,14.17,1.21,21.22,1.37a147.87,147.87,0,0,0,20.9-.8,65.23,65.23,0,0,0,19.39-5,40.53,40.53,0,0,0,15.06-12,82.14,82.14,0,0,0,10.17-17.72c.73-1.59,1.4-3.23,2.08-4.85l1-2.47.48-1.2.12-.36.14-.52c.4-1.46.76-3.2,1.05-4.89s.58-3.43.8-5.17a164.76,164.76,0,0,0,1.33-21,154.64,154.64,0,0,0-1.31-20.68,85.12,85.12,0,0,0-1.85-9.76l-.65-2.31c-.26-.73-.48-1.5-.74-2.22s-.51-1.45-.84-2.11l-1-2.26a67.32,67.32,0,0,1-6.19-22.64,72.93,72.93,0,0,1,1.8-23.12,106.52,106.52,0,0,1,7.72-21.24c1.61-3.37,3.37-6.65,5.21-9.86q1.39-2.4,2.85-4.76c.92-1.5,1.8-3,2.66-4.54a197.7,197.7,0,0,0,9.22-19.17,393.7,393.7,0,0,0,14.34-40.4c4.12-13.71,7.63-27.6,10.65-41.57s5.49-28,7.36-42.12a345.8,345.8,0,0,0,3.23-42.15,168.7,168.7,0,0,0-1-20.6,99.87,99.87,0,0,0-1.6-9.86l-.56-2.38-.63-2.32-.72-2.27-.86-2.44a150.41,150.41,0,0,0-8-18.87c-1.51-3-3.2-5.93-4.94-8.77s-3.67-5.55-5.73-8.09c-1-1.31-2.09-2.5-3.14-3.75s-2.19-2.39-3.38-3.47a59.27,59.27,0,0,0-7.34-6.14,55.33,55.33,0,0,0-17-8.22c-12.17-3.59-25.72-2.9-38.81.36a126.62,126.62,0,0,0-19.4,6.57c-3.17,1.34-6.29,2.83-9.36,4.41-1.54.78-3.07,1.6-4.57,2.44l-2.22,1.28c-.72.42-1.5.89-2.09,1.26h0l-7,4.93-1.75-8.29-12-57,0-.19,0-.23c-2.55-18.9-5.46-37.74-8.89-56.49s-7.47-37.38-12-55.89a816.38,816.38,0,0,0-34.67-108.7A636.83,636.83,0,0,0,1808,379.07a543.64,543.64,0,0,0-32.78-46.47c-5.92-7.4-12-14.7-18.27-21.76s-12.79-14-19.52-20.62a419.85,419.85,0,0,0-42.8-37.17,348.36,348.36,0,0,0-47.66-30.38A247.2,247.2,0,0,0,1621.41,211c-2.16-.82-4.35-1.62-6.48-2.3l-.77-.24-.33-.1-.43-.12-1.72-.46-3.45-.93c-4.61-1.23-9.19-2.51-13.81-3.7q-27.68-7.2-55.71-12.87c-4.67-.91-9.33-1.89-14-2.74L1510.63,185l-14.1-2.28c-4.7-.77-9.42-1.36-14.13-2.05q-28.31-3.88-56.79-5.81a660.8,660.8,0,0,0-113.85,1.92,566.35,566.35,0,0,0-56.21,8.85l-3.48.72-3.47.79-6.93,1.6c-4.61,1.08-9.19,2.32-13.79,3.47s-9.14,2.51-13.67,3.88-9.09,2.72-13.57,4.26A483.91,483.91,0,0,0,1097.74,248l-6,3.74-6,3.88c-4,2.55-7.85,5.29-11.77,7.95-7.74,5.47-15.4,11.05-22.82,17a519,519,0,0,0-42.66,37.57,593.78,593.78,0,0,0-72.83,87.35,736,736,0,0,0-56.76,98.86,907.87,907.87,0,0,0-42.51,106,1055,1055,0,0,0-29.95,110.32q-6,28-10.5,56.2-2.24,14.11-4,28.28-.9,7.08-1.66,14.17l-.72,7.08-.32,3.53-.14,1.76,0,.42a.22.22,0,0,1,0,.08A.53.53,0,0,1,788.89,832.3Z"/><path class="cls-6" d="M1451.82,992.08a80.31,80.31,0,0,1-.5-20.84,92.16,92.16,0,0,1,4.4-20.58,95.67,95.67,0,0,1,9-19.26A97.92,97.92,0,0,1,1478,914.51a127.94,127.94,0,0,1,34.85-24.9c3.2-1.57,6.45-3.07,9.76-4.4s6.65-2.58,10-3.65a175.81,175.81,0,0,1,20.62-5.1,188.47,188.47,0,0,1,21-2.88c3.53-.28,7.08-.47,10.62-.55s7.1,0,10.65.13a164.86,164.86,0,0,1,21.15,2.23c3.48.64,7,1.27,10.39,2.18s6.86,1.72,10.21,2.87a152,152,0,0,1,19.68,7.68,146.92,146.92,0,0,1,18.3,10.36,138.66,138.66,0,0,1,16.54,12.79c2.55,2.36,5.06,4.76,7.42,7.31a83.17,83.17,0,0,1,6.71,8l-1.12.86a95.72,95.72,0,0,0-7.36-7c-2.55-2.24-5.25-4.31-8-6.34a144.11,144.11,0,0,0-17.11-10.83c-1.45-.84-3-1.53-4.49-2.31l-2.25-1.12-2.3-1c-1.55-.67-3-1.42-4.61-2l-4.66-1.87a147.24,147.24,0,0,0-19.17-5.79c-3.22-.83-6.52-1.34-9.79-1.93s-6.57-1-9.87-1.35a175.64,175.64,0,0,0-19.86-.76c-3.31.05-6.62.22-9.93.47s-6.6.55-9.89,1c-6.57.84-13.11,2-19.6,3.38s-12.92,3.12-19.24,5c-3.16,1-6.31,1.93-9.44,3s-6.22,2.17-9.27,3.39c-12.2,4.87-23.79,11.33-33.71,19.92a95.31,95.31,0,0,0-13.46,14.35,89.14,89.14,0,0,0-10.09,17.08,93.84,93.84,0,0,0-6.13,19.11,88.45,88.45,0,0,0-1.47,10,68.85,68.85,0,0,0-.22,10.15Z"/><path class="cls-6" d="M1447.82,975.08a68.2,68.2,0,0,1-.6-10.38,92.4,92.4,0,0,1,15-49.33,96.87,96.87,0,0,1,13.33-16.22,125.46,125.46,0,0,1,34.63-23.53A166.94,166.94,0,0,1,1550,863.15a187.76,187.76,0,0,1,41.51-3.49,169.78,169.78,0,0,1,20.77,1.87c3.42.56,6.85,1.14,10.23,2s6.77,1.51,10.09,2.56a151.82,151.82,0,0,1,19.54,7.07,155,155,0,0,1,18.35,9.68,142.19,142.19,0,0,1,16.8,12.13c2.63,2.25,5.22,4.53,7.66,7a89.8,89.8,0,0,1,7,7.68l-1.12.86a86.93,86.93,0,0,0-7.06-7.32c-2.47-2.35-5.08-4.53-7.72-6.68a139.56,139.56,0,0,0-16.86-11.49,154,154,0,0,0-18.25-9,147.9,147.9,0,0,0-19.3-6.4c-3.26-.94-6.6-1.55-9.91-2.24s-6.68-1.13-10-1.58a165.43,165.43,0,0,0-20.26-1.12,193.54,193.54,0,0,0-40.21,4.63,218.36,218.36,0,0,0-38.55,12.08c-12.33,5.31-24,12.24-33.92,21.29a96.16,96.16,0,0,0-13.33,15,90.07,90.07,0,0,0-9.75,17.62,94.09,94.09,0,0,0-5.65,19.45,92.3,92.3,0,0,0-1.18,10.11,66.23,66.23,0,0,0,.1,10.16Z"/><path class="cls-6" d="M1530.47,1009.51c5.39.24,10.79.19,16.15,0s10.7-.69,16-1.33a194,194,0,0,0,31.25-6.33c5.09-1.49,10.1-3.23,15.05-5.13,2.45-1,4.94-2,7.34-3.08s4.81-2.24,7.23-3.37a222.08,222.08,0,0,0,27.56-16.59l.66.74a111.5,111.5,0,0,1-25.53,20.78,129.45,129.45,0,0,1-14.8,7.54,137.55,137.55,0,0,1-48.33,10.78,135.49,135.49,0,0,1-16.5-.34,94.23,94.23,0,0,1-16.26-2.64Z"/><path class="cls-21" d="M1639.88,924c0,36.17-29.77,65.5-66.5,65.5s-66.5-29.33-66.5-65.5a64.42,64.42,0,0,1,6.11-27.45A178.38,178.38,0,0,1,1546.38,885c30.35-7.44,56.35-7.18,78-3A64.63,64.63,0,0,1,1639.88,924Z"/><circle class="cls-22" cx="1571.88" cy="923.5" r="33"/><circle class="cls-23" cx="1571.88" cy="923.5" r="24"/><ellipse class="cls-24" cx="1607.88" cy="920.5" rx="23" ry="10" transform="translate(-81.51 159.87) rotate(-5.55)"/><path class="cls-25" d="M1401.88,791.5s-4,52,19,74c0,0,158-67,187-84,0,0,5-8,27-2s77,15,99,15c0,0,10,0,11-1s-82-70-121-78c0,0-137,23-202,79l-5,5S1401.88,786.5,1401.88,791.5Z"/><path class="cls-26" d="M905.38,915l89-93s181,1,194,7c0,0,14,9,14,17,0,0,1-20,4-20s13,59,2,68l-187-19s-109,46-114,44S905.38,915,905.38,915Z"/><path class="cls-20" d="M1213.88,1022.5c-11,58-70.5,74.5-131.43,62.94-47.53-9-77.55-41.36-88.44-55.14.48-15.38,2.31-67.8,4.87-67.8,3,0,119-15,157,2S1210.88,1011.5,1213.88,1022.5Z"/><path class="cls-6" d="M1182.67,1073.41a79.41,79.41,0,0,1-14.76,9.71,98,98,0,0,1-16.64,6.33,117.58,117.58,0,0,1-17.54,3.2,139,139,0,0,1-17.78.55,161.19,161.19,0,0,1-35-5.21,171.31,171.31,0,0,1-16.79-5.31,128,128,0,0,1-16-7.22l.4-.92q16.73,4.8,33.64,8a247.52,247.52,0,0,0,34,4q8.52.32,17-.15a149,149,0,0,0,16.84-2.14,106,106,0,0,0,32-11.64Z"/><path class="cls-6" d="M1912.34,930q.06,38.1.84,76.26.63,38.15,2,76.24c.42,12.71,1,25.39,1.53,38.09s1.25,25.36,2.12,38l.6,9.5c.2,3.16.49,6.32.73,9.48l.75,9.47c.25,3.16.48,6.33.82,9.47l1.89,18.88,1.19,9.38.59,4.69a9.43,9.43,0,0,1-.24,4.81l-9.5,1.34a9.72,9.72,0,0,1-1.41-4.67l-.57-4.78-1.13-9.56-1.78-19.12c-.32-3.19-.52-6.38-.75-9.56l-.69-9.56c-.21-3.19-.48-6.37-.66-9.56l-.53-9.56c-.79-12.74-1.28-25.49-1.85-38.23s-.92-25.48-1.17-38.22q-.94-38.24-1.09-76.44c-.06-25.49,0-50.95.42-76.45Z"/><path class="cls-27" d="M2030.38,760s-26,1-37,0-34,36-48,48-36.5,184.5-36.5,184.5c-118-234-110.5-286.5-110.5-286.5l-101-153c-129,196-368,127-368,127-31,116-156.85,146.64-156.85,146.64-144.88,80.21-293.74,37.44-308.89,32.75,1.87,1.51,5.9,7.67,12.74,31.61,10,35,4,94,9,144s8.5,112.5,8.5,112.5c-.66-.33-101.5-107.5-101.5-107.5s-2,6-2,31-7,39-7,39c-30-23-25-136-25-136l-9-20c-85-134-103-247-103-247-78-66-9-107-9-107-31-60,18-119,18-119-1-91,105-153,105-153,33-65.19,82.42-75.68,108.19-77.93,7.83-.68,13.48-.6,15.81-1.07,10-2,13-17,13-17-6-19,1-51,17-67s63,22,63,22-6-36,28-56,72,21,72,21c1-37,31-47,49-59s61,9,73-3,66-22,66-22,36-2,68-31,73-5,73-5c38-14,92-12,92-12,163-61,268,37,268,37,28.71,10.48,52.1,21.46,71,32.67,100.68,59.54,75.78,125.56,53.77,158A127.36,127.36,0,0,1,1874.38,268c79,38,91,148,87,210s12,187,37,213S2030.38,760,2030.38,760Z"/><path class="cls-5" d="M628.81,570.46c30.32,8.62,60.9,12.27,91.47,12.87a459.19,459.19,0,0,0,90.81-7.43,415.68,415.68,0,0,0,44-10.66,331,331,0,0,0,42.21-15.66,239.33,239.33,0,0,0,39.13-22.15,179.06,179.06,0,0,0,33.75-31.09l2.36,1.32a102.85,102.85,0,0,1-10.75,21.88A134,134,0,0,1,946.62,539a177.84,177.84,0,0,1-38.74,30.64,243.13,243.13,0,0,1-44.71,20.55,293,293,0,0,1-47.46,11.91,333.67,333.67,0,0,1-48.51,4.54c-8.12.19-16.24,0-24.33-.41s-16.17-1.2-24.2-2.32a266.19,266.19,0,0,1-47.31-10.67c-15.33-5.05-30.24-11.58-43.65-20.36Z"/><path class="cls-6" d="M1137.46,1426.56A671.7,671.7,0,0,0,1201.1,1453c21.56,7.74,43.39,14.49,65.47,20a571.49,571.49,0,0,0,66.81,12.71c11.22,1.38,22.46,2.47,33.71,3s22.51.9,33.74.56c44.93-.9,89.55-9.63,131-27,10.43-4.22,20.5-9.26,30.5-14.49l7.42-4.09c1.25-.66,2.46-1.39,3.67-2.12l3.64-2.17c4.92-2.81,9.61-6,14.41-9,9.41-6.33,18.71-12.93,27.65-20.06l3.37-2.64,1.7-1.33,1.64-1.38,6.57-5.54c2.25-1.79,4.37-3.73,6.52-5.63s4.32-3.81,6.5-5.7l2.86,2.68c-1.84,2.25-3.69,4.5-5.57,6.72s-3.72,4.5-5.71,6.64l-5.92,6.45-1.49,1.61-1.54,1.56-3.09,3.12a316.23,316.23,0,0,1-26.1,23.6c-4.65,3.6-9.24,7.3-14.09,10.67l-3.6,2.57c-1.2.86-2.4,1.71-3.65,2.5l-7.41,4.85c-1.23.83-2.5,1.6-3.77,2.35l-3.8,2.28c-2.55,1.52-5.08,3-7.7,4.43l-7.8,4.26-8,3.94a300.84,300.84,0,0,1-32.9,13.62c-2.79,1-5.63,1.91-8.46,2.82s-5.66,1.82-8.54,2.58l-8.6,2.36-8.67,2.09c-11.6,2.62-23.34,4.6-35.13,6.08s-23.66,2.13-35.51,2.41-23.7-.12-35.5-.95-23.54-2.18-35.19-4-23.21-4.11-34.64-6.87c-2.87-.65-5.72-1.39-8.56-2.12s-5.69-1.45-8.51-2.27-5.66-1.58-8.46-2.44-5.62-1.67-8.41-2.58a511.52,511.52,0,0,1-65.23-25.74c-10.52-5.06-20.9-10.39-31-16.21-5-2.9-10.06-5.87-15-9s-9.79-6.29-14.5-9.76Z"/><path class="cls-6" d="M1620.07,1370a23.9,23.9,0,0,1,9.86.08,34.33,34.33,0,0,1,9.34,3.39,39.33,39.33,0,0,1,14.53,13.65,48.12,48.12,0,0,1,4.41,8.93,48.72,48.72,0,0,1,2.34,9.47,47.29,47.29,0,0,1,.39,9.57c-.11,1.59-.31,3.17-.54,4.73a46.85,46.85,0,0,1-1.14,4.64l-1,.06c-.7-1.45-1.31-2.87-1.86-4.29s-1.17-2.78-1.72-4.15c-1.16-2.72-2.25-5.37-3.45-7.91-.31-.63-.57-1.28-.86-1.91s-.65-1.23-.94-1.85c-.54-1.26-1.3-2.4-1.88-3.62-1.33-2.34-2.7-4.61-4.18-6.78a85.36,85.36,0,0,0-10.18-12c-1.93-1.87-4-3.72-6.16-5.55s-4.56-3.62-7.12-5.49Z"/><path class="cls-28" d="M1006.92,396.4A124.69,124.69,0,0,0,975.81,376a161,161,0,0,0-17.24-6.67c-5.87-1.88-11.85-3.42-17.88-4.72-24.17-5-49.12-6.07-74-5-6.21.22-12.43.69-18.65,1.14s-12.43,1-18.66,1.52c-3.12.23-6.24.52-9.35.81s-6.25.53-9.37.84c-6.25.55-12.51,1.16-18.76,1.9-12.52,1.42-25,3.34-37.43,5.59s-24.92,4.55-37.33,7.14l-.84-2.58c23.63-10.07,48.39-16.72,73.37-22.77,6.26-1.47,12.54-2.87,18.86-4.12,3.17-.59,6.34-1.18,9.52-1.7s6.37-1,9.57-1.4a310.44,310.44,0,0,1,38.71-2.43,318.67,318.67,0,0,1,38.9,2.07c6.46.77,12.91,1.81,19.31,3.06s12.75,2.9,19,4.76c3.15.91,6.25,2,9.34,3l4.59,1.75c1.53.6,3,1.27,4.54,1.9a143.24,143.24,0,0,1,17.48,9,110.32,110.32,0,0,1,29.31,25.52Z"/><path class="cls-28" d="M665.54,686.84A510.44,510.44,0,0,0,735,734.68c6.19,3.33,12.28,6.86,18.63,9.9l4.71,2.4c1.56.79,3.12,1.61,4.73,2.33l9.58,4.45c.8.37,1.59.76,2.4,1.11l2.44,1,4.86,2.06c3.25,1.37,6.48,2.78,9.78,4s6.56,2.6,9.86,3.84l10,3.57q20,6.92,40.64,12.23t41.68,8.89c7,1.25,14.07,2.31,21.14,3.23l10.64,1.33c3.55.37,7.11.78,10.67,1.08q10.69,1,21.45,1.53c3.58.19,7.17.33,10.76.4s7.2.12,10.76.07l.34,2.69c-14.4,2.87-29,4-43.58,4.55-3.65.12-7.3.14-11,.2l-5.49,0c-1.83,0-3.66,0-5.49-.08-7.31-.23-14.64-.59-21.95-1.15a415.91,415.91,0,0,1-43.69-5.77,437.38,437.38,0,0,1-43-10.42,412.61,412.61,0,0,1-81.7-34.26,385,385,0,0,1-72-51.72Z"/><path class="cls-28" d="M688.45,583.15A170.9,170.9,0,0,0,721,597.91c2.81,1,5.7,1.76,8.56,2.62s5.78,1.52,8.72,2.11,5.87,1.15,8.82,1.7,5.93.9,8.92,1.19c23.91,2.65,48.4.37,72.1-5.34a316.09,316.09,0,0,0,68.69-25.91q16.46-8.4,32.09-18.35A330,330,0,0,0,959,534.48l1.78,2a331.36,331.36,0,0,1-29.56,22.94q-15.36,10.69-31.73,19.91a320.55,320.55,0,0,1-69.18,29.34c-24.25,6.84-49.8,10.29-75.38,8.46-3.19-.18-6.37-.57-9.56-.9s-6.36-.85-9.52-1.45-6.3-1.24-9.45-1.9-6.26-1.51-9.33-2.47a184.74,184.74,0,0,1-35.75-14.6Z"/><path class="cls-28" d="M864.06,857.84a554.92,554.92,0,0,0,65,9.16,467.32,467.32,0,0,0,65.12.62l8.1-.62c2.69-.23,5.4-.33,8.08-.69l8-.93c2.69-.31,5.37-.57,8-1l8-1.22,4-.61c1.33-.2,2.64-.5,4-.75l7.93-1.56,4-.77,3.93-.93a346.44,346.44,0,0,0,61.16-19.94,317,317,0,0,0,55.91-31.35,311.13,311.13,0,0,0,48.35-42.17A343.34,343.34,0,0,0,1263,713.81c11.66-18.29,21.56-37.75,30.61-57.77l2.56.92c-1.59,5.29-3.27,10.56-4.92,15.85-.8,2.66-1.83,5.23-2.81,7.82l-3,7.79c-1.87,5.24-4.33,10.22-6.58,15.31-1.16,2.53-2.25,5.1-3.48,7.6l-3.86,7.42A298,298,0,0,1,1234,774.33a285.93,285.93,0,0,1-49.56,45.72,297.22,297.22,0,0,1-58.82,33.1c-41.51,17.62-86.45,26.07-131,26.56a392.74,392.74,0,0,1-66.49-4.88,397.17,397.17,0,0,1-64.42-15.67Z"/><path class="cls-28" d="M1168.69,824.84c8.84-4.13,17.71-7.92,26.39-12s17.27-8.25,25.62-12.72c16.66-9,32.55-19,46.42-31.1a180,180,0,0,0,19.27-19.59,196.27,196.27,0,0,0,16.08-22.46c4.9-7.9,9.33-16.21,13.56-24.75s8.22-17.31,12.55-26.07l2.6.78a193.18,193.18,0,0,1-5.93,28.84,165.7,165.7,0,0,1-10.58,27.89,140.9,140.9,0,0,1-37.25,47.44c-15.56,13-33.31,22.71-51.64,30a258.11,258.11,0,0,1-56.71,15.1Z"/><path class="cls-5" d="M893.42,1148c-68.66-35.37-101-108-101-108s-2,6-2,31-7,39-7,39c-30-23-25-136-25-136l-9-20c-85-134-103-247-103-247-78-66-9-107-9-107-31-60,18-119,18-119-1-91,105-153,105-153,33-65.19,82.42-75.68,108.19-77.93C842.24,268.24,762.22,327.4,758.88,377.5c0,0-69,49-87,103,35,25-4.38,90,73,123-.58-.2-30.63.45-46-2-16.89-2.69-36.37-13-40,0-7,25-39,151,218,202,0,0-100,11-188-51,0,0,5,81,76,170,0,0,1-41,21-45,0,0-14,39-7,60,0,0-9,36,87,107,0,0-5,8-29,4,0,0,32,80,56,94Z"/><path class="cls-6" d="M1351.48,1569.51c10.23,0,20.29.11,30.3,0s20-.3,29.86-.92c2.47-.19,4.95-.35,7.41-.58,1.24-.1,2.47-.22,3.7-.36s2.46-.23,3.69-.39q7.38-.87,14.69-2.16c4.88-.88,9.72-2,14.56-3.18s9.6-2.79,14.45-4.41l.48.88a71.4,71.4,0,0,1-6.42,4.33c-2.19,1.4-4.52,2.54-6.84,3.73a113.54,113.54,0,0,1-14.51,5.66,136.27,136.27,0,0,1-15.15,3.64c-2.55.43-5.11.88-7.69,1.16-1.28.15-2.57.34-3.86.46l-3.87.33a164.47,164.47,0,0,1-30.91-.56,153.75,153.75,0,0,1-15.23-2.45c-2.51-.56-5-1.15-7.49-1.85s-4.94-1.45-7.37-2.4Z"/><path class="cls-6" d="M992.91,1034.47l.3-19.68c.15-6.56.35-13.12.56-19.69s.47-13.12.78-19.72c.19-3.31.35-6.58.77-10a20.25,20.25,0,0,1,.52-2.79l.15-.44c.08-.19.14-.36.25-.58a3.27,3.27,0,0,1,.83-1,2.09,2.09,0,0,1,.51-.35,3.16,3.16,0,0,1,1-.3l.37,0H999l1-.14,4.84-.76c13-2,26-4.41,39.08-6.35a378.65,378.65,0,0,1,39.57-3.76,301.49,301.49,0,0,1,40.17.58,157.59,157.59,0,0,1,20.42,3.09c.87.2,1.72.37,2.58.6l2.6.71c1.72.43,3.48,1.08,5.22,1.65.86.27,1.76.69,2.63,1l1.32.54c.45.18.87.37,1.25.56,1.56.75,3.13,1.52,4.65,2.37a96.26,96.26,0,0,1,17,12.09,126,126,0,0,1,14.4,14.74,105,105,0,0,1,11.44,16.82,79.25,79.25,0,0,1,4.32,9.13,51.49,51.49,0,0,1,2.9,9.62l-.86.24a48.64,48.64,0,0,0-4.65-8.5,89.52,89.52,0,0,0-5.8-7.73c-1-1.25-2.1-2.42-3.15-3.63s-2.19-2.34-3.34-3.44-2.27-2.24-3.46-3.3l-1.76-1.6-1.81-1.54A113.19,113.19,0,0,0,1174.07,982a180.35,180.35,0,0,0-16.66-8.27c-1.42-.61-2.81-1.27-4.23-1.86-.36-.16-.7-.3-1-.41l-1-.37c-.65-.23-1.24-.53-2-.72-1.39-.4-2.71-.89-4.18-1.21l-2.16-.54c-.73-.17-1.49-.3-2.23-.46a173,173,0,0,0-18.49-2.48c-12.61-1.08-25.51-1.42-38.45-1.57l-39-.07c-13.07-.07-26.19,0-39.28.73l-4.94.28-.63,0-.81,0H999s-.19,0,.22,0a2.25,2.25,0,0,0,.81-.25,3,3,0,0,0,.39-.25,1.94,1.94,0,0,0,.36-.39l.1-.15s0,0,0,0l-.06.13a15.74,15.74,0,0,0-.54,2c-.64,3-1.05,6.31-1.42,9.54-.78,6.47-1.23,13-1.73,19.53s-.83,13.08-1.19,19.62-.74,13.09-1,19.63Z"/><path class="cls-21" d="M1182.88,995.5a62,62,0,1,1-110.43-38.72c31.92-1.15,65.94-.11,83.43,7.72a121.83,121.83,0,0,1,24.87,14.85A61.87,61.87,0,0,1,1182.88,995.5Z"/><circle class="cls-22" cx="1121.64" cy="999.49" r="33"/><circle class="cls-23" cx="1121.64" cy="999.49" r="24"/><ellipse class="cls-24" cx="1085.64" cy="996.49" rx="10" ry="23" transform="translate(49.07 2043.93) rotate(-87.85)"/><path class="cls-12" d="M1301,1294.06c16,6.12,35.29,6.27,52.11,5.66,7.69-.27,7.73-12.27,0-12-15.87.57-33.79.54-48.92-5.23-7.22-2.76-10.35,8.84-3.19,11.57Z"/><path class="cls-12" d="M1382.38,1300a103.68,103.68,0,0,0,16.38-1.91c3.2-.55,5-4.48,4.2-7.38-.93-3.38-4.18-4.74-7.39-4.19a83.48,83.48,0,0,1-13.19,1.48c-7.72.06-7.74,12.06,0,12Z"/><path class="cls-29" d="M1960.38,983s13,64-9,87c0,0,15,9,29-40,0,0,38-46,39-82,0,0,23-19,12-74s-22-85-46-79-32.5,82.5-13.5,116.5S1960.38,983,1960.38,983Z"/><path class="cls-28" d="M1361.15,148.4a160.31,160.31,0,0,1,24.43-13,232.05,232.05,0,0,1,26-9.47,269.21,269.21,0,0,1,54.3-10.32,303.45,303.45,0,0,1,55.33.35,341.85,341.85,0,0,1,54.44,9.93,393.67,393.67,0,0,1,52.29,17.91c4.28,1.72,8.45,3.73,12.64,5.65,2.11.94,4.15,2,6.22,3.08s4.12,2.08,6.17,3.15l6.06,3.38,3,1.69,3,1.8c2,1.21,4,2.38,5.93,3.62l5.79,3.85a219.29,219.29,0,0,1,21.9,17.16,162.37,162.37,0,0,1,19,20.42c1.39,1.87,2.8,3.73,4.11,5.65s2.63,3.84,3.8,5.87l1.8,3,1.67,3.07c.57,1,1.09,2.06,1.59,3.11s1.06,2.08,1.5,3.16a94.12,94.12,0,0,1,4.82,13.12c.63,2.24,1.15,4.52,1.56,6.82a45,45,0,0,1,.79,7.06l-2.7.07a44.89,44.89,0,0,0-1.19-6.47c-.26-1.08-.58-2.15-.89-3.22s-.66-2.13-1-3.18a91.56,91.56,0,0,0-5.3-12.3,123.88,123.88,0,0,0-14.92-22.22c-11.49-13.74-25.51-25.23-40.54-35l-5.69-3.61c-1.92-1.18-3.88-2.28-5.81-3.43l-2.91-1.7-3-1.6-6-3.19c-8-4-16.21-7.87-24.55-11.32l-6.26-2.57c-2.09-.87-4.22-1.6-6.33-2.41l-6.35-2.37-6.42-2.19-6.42-2.17-6.47-2-6.48-2c-2.17-.62-4.35-1.18-6.53-1.77a362.2,362.2,0,0,0-53.12-10.12c-2.24-.27-4.49-.42-6.73-.63s-4.49-.45-6.74-.56c-4.51-.21-9-.56-13.51-.58-9-.32-18,0-27.05.48l-6.74.51c-2.25.17-4.49.47-6.73.7l-3.37.35-3.35.46c-2.23.33-4.48.56-6.7,1a269.47,269.47,0,0,0-26.51,5.55,249.34,249.34,0,0,0-25.83,8.25c-4.22,1.61-8.39,3.37-12.5,5.24a126.92,126.92,0,0,0-12,6.18Z"/><path class="cls-28" d="M1764.72,85.48a114,114,0,0,1,18.5,17.4c2.62,3.35,5.3,6.69,7.58,10.29a122.79,122.79,0,0,1,6.57,11,170.15,170.15,0,0,1,16.24,48.17,213.79,213.79,0,0,1,3.27,25.16c.17,2.11.34,4.21.4,6.32s.2,4.22.21,6.33q.15,6.31,0,12.64l-.25,6.31-.37,6.3c-.32,4.2-.74,8.38-1.23,12.56a198.64,198.64,0,0,1-4.45,24.82l-2.66-.5c.73-8.21,1.22-16.51,1.49-24.76.09-2.06.12-4.13.18-6.19l.07-6.19v-6.18l-.11-6.18-.18-6.17c-.07-2.05-.2-4.11-.3-6.16s-.27-4.1-.41-6.15l-.22-3.07-.27-3.06q-1.1-12.25-3.25-24.35c-.31-2-.76-4-1.17-6s-.81-4-1.33-6l-1.48-5.93-1.67-5.88c-.54-2-1.25-3.87-1.87-5.81l-1-2.9-1.11-2.84-1.08-2.86c-.35-1-.71-1.9-1.14-2.82l-2.45-5.59c-.87-1.83-1.83-3.63-2.74-5.44s-1.9-3.59-2.92-5.35c-1.92-3.6-4.32-6.89-6.52-10.33A143.17,143.17,0,0,0,1763,87.51Z"/><path class="cls-28" d="M1827.89,109.66a81.33,81.33,0,0,1,12.54,17.45q1.24,2.4,2.44,4.83l2.09,5,.53,1.25.45,1.28.89,2.55.87,2.56.73,2.6c.45,1.73,1,3.45,1.39,5.21l1.18,5.27c.61,3.53,1.26,7.07,1.64,10.63s.76,7.13,1,10.7l.2,5.36c.08,1.79.05,3.57.07,5.36a226.35,226.35,0,0,1-4.07,42.42q-1,5.22-2.2,10.4c-.81,3.45-1.71,6.87-2.65,10.29a181.09,181.09,0,0,1-6.82,20.12l-2.58-.84c2.83-13.64,5.23-27.39,7-41.13a339.14,339.14,0,0,0,3.11-41.29c.1-6.88-.22-13.74-.8-20.56a151.49,151.49,0,0,0-3.09-20.26,113,113,0,0,0-6.1-19.5,101.14,101.14,0,0,0-9.87-18Z"/><path class="cls-28" d="M1728.61,118.4a137.43,137.43,0,0,1,18.45,12.71,135.35,135.35,0,0,1,16.26,15.6,144.28,144.28,0,0,1,13.63,18,158,158,0,0,1,10.76,19.91,169.65,169.65,0,0,1,12.78,43.18c.55,3.72,1,7.44,1.37,11.17s.54,7.47.63,11.21a126.61,126.61,0,0,1-1.26,22.41l-2.7-.24a244.68,244.68,0,0,0-5.23-43.23A213.24,213.24,0,0,0,1780.23,188a191.27,191.27,0,0,0-9.87-19.15c-.91-1.56-1.91-3.05-2.87-4.57l-1.44-2.28-1.56-2.2c-1-1.47-2-3-3.09-4.43l-3.29-4.28c-1.06-1.46-2.29-2.79-3.45-4.17l-1.73-2.08c-.58-.7-1.16-1.38-1.79-2l-3.7-4-.93-1-1-.94L1743.6,135a207.71,207.71,0,0,0-16.45-14.38Z"/><path class="cls-28" d="M1075.81,160.18c9.47-1.3,18.93-.75,28.3.57a132.73,132.73,0,0,1,27.48,7.06A126.52,126.52,0,0,1,1157,180.45a111.76,111.76,0,0,1,11.47,8.33c1.88,1.41,3.54,3.12,5.27,4.71s3.39,3.27,5,5l-1.74,2.08c-2-1.15-4-2.36-5.94-3.56s-3.82-2.52-5.85-3.58-4-2.26-5.92-3.41l-1.46-.87c-.49-.28-1-.52-1.51-.78l-3-1.57a220.19,220.19,0,0,0-24.62-11.26,200.85,200.85,0,0,0-25.87-8.06,188.88,188.88,0,0,0-26.87-4.63Z"/><path class="cls-28" d="M898.66,228.2a118.41,118.41,0,0,1,14.77-2c4.93-.41,9.88-.57,14.83-.59,2.47,0,5,0,7.42.1s5,.14,7.41.34,4.95.29,7.41.54l7.39.79c4.9.68,9.82,1.3,14.69,2.21s9.71,1.94,14.56,3c2.41.54,4.8,1.19,7.21,1.78s4.8,1.18,7.2,2c4.83,1.42,9.53,3.11,14.17,4.91,9.28,3.59,18.23,7.74,27.07,12s17.54,8.79,26.22,13.27c4.33,2.25,8.66,4.53,13,6.69s8.68,4.39,13.07,6.5c2.2,1,4.39,2.08,6.59,3.12l6.67,2.92c2.24.93,4.5,1.8,6.76,2.71s4.59,1.58,6.89,2.42l-.26,1.16c-9.79-1.47-19.28-4.54-28.51-8-4.6-1.77-9.2-3.54-13.72-5.48s-9-3.91-13.5-5.89c-8.94-4-17.79-8.18-26.64-12.24s-17.7-8.07-26.67-11.54c-4.49-1.71-9-3.4-13.53-4.77-2.24-.75-4.6-1.34-6.92-2s-4.65-1.31-7-1.9c-4.7-1.1-9.38-2.32-14.12-3.21-4.72-1.08-9.48-1.87-14.24-2.73s-9.56-1.45-14.36-2-9.63-1-14.45-1.35c-2.42-.22-4.84-.27-7.26-.41-1.21-.06-2.41-.06-3.62-.1s-2.43-.09-3.64-.09c-4.83-.06-9.72,0-14.47.4Z"/><path class="cls-28" d="M1301.44,182.61a104.75,104.75,0,0,1-17.74,7.76c-1.53.52-3.06,1-4.61,1.48s-3.09.91-4.65,1.33c-3.11.87-6.25,1.6-9.41,2.24s-6.34,1.22-9.54,1.7c-1.6.25-3.2.42-4.81.61s-3.21.37-4.82.5a164.78,164.78,0,0,1-19.37.68,166.7,166.7,0,0,1-19.33-1.39,172.74,172.74,0,0,1-19-3.49A165.81,165.81,0,0,1,1152,180.8l1-2.52c1.54.39,3.07.81,4.59,1.22s3,.9,4.56,1.25c3.06.76,6.06,1.64,9.13,2.3l4.57,1.08c1.52.37,3.07.62,4.6,1,3,.7,6.12,1.23,9.18,1.77s6.15,1,9.22,1.49,6.17.81,9.26,1.11c6.18.72,12.39,1,18.59,1.26s12.42.05,18.62-.24c1.56-.07,3.11-.16,4.65-.3s3.11-.23,4.65-.41c3.1-.27,6.19-.63,9.27-1.06,1.54-.23,3.09-.42,4.62-.7s3.08-.47,4.61-.77c3.08-.52,6.12-1.22,9.17-1.87a159.64,159.64,0,0,0,18-5.13Z"/><path class="cls-28" d="M1259.15,321.21l9.42,1.38,4.69.71c1.57.2,3.15.34,4.72.51l9.43,1c3.15.25,6.31.42,9.46.64l4.73.31c1.57.08,3.15.09,4.73.14l9.46.26,9.46-.14c1.58,0,3.15,0,4.73-.06l4.72-.24c3.15-.17,6.3-.27,9.44-.51l9.42-.84c3.14-.2,6.26-.68,9.39-1s6.26-.7,9.37-1.24l9.33-1.46,9.3-1.73c3.1-.53,6.17-1.24,9.25-1.91s6.17-1.3,9.22-2.1c12.25-2.94,24.37-6.46,36.35-10.42l4.49-1.48c1.5-.5,3-1.07,4.47-1.57,3-1.07,6-2.05,8.91-3.2s5.92-2.19,8.85-3.38l8.78-3.54c2.91-1.23,5.84-2.42,8.74-3.68s5.79-2.53,8.65-3.87c5.75-2.64,11.49-5.29,17.14-8.15s11.29-5.73,16.84-8.77q4.18-2.25,8.3-4.63c2.75-1.56,5.5-3.17,8.15-4.83l1.58,2.2c-5.12,3.95-10.4,7.54-15.78,11s-10.86,6.81-16.44,10-11.21,6.21-16.92,9.13c-2.86,1.46-5.76,2.83-8.63,4.25s-5.82,2.71-8.73,4.07q-8.78,3.93-17.74,7.47c-3,1.23-6,2.3-9,3.45s-6,2.18-9.09,3.21a377.37,377.37,0,0,1-37,10.7c-3.12.8-6.27,1.41-9.42,2.08s-6.28,1.37-9.46,1.89-6.33,1.13-9.5,1.65l-9.57,1.31c-3.17.48-6.38.74-9.58,1.08s-6.4.72-9.61.87l-9.63.55c-3.22.14-6.44.15-9.65.22l-4.82.09c-1.61,0-3.21-.06-4.82-.09l-9.64-.28-9.61-.67c-1.6-.13-3.21-.21-4.81-.36l-4.78-.58c-3.19-.4-6.37-.75-9.55-1.18l-9.49-1.62c-1.57-.29-3.16-.53-4.73-.84l-4.69-1.06-9.35-2.15Z"/><path class="cls-28" d="M1015.18,350.52a245.93,245.93,0,0,0,33.12,34.39c6,5.19,12.24,10.2,18.65,14.93s13,9.25,19.65,13.57,13.52,8.41,20.47,12.3,14,7.62,21.14,11.1a431,431,0,0,0,44,18.46A380.8,380.8,0,0,0,1218,468.33c7.76,1.65,15.57,3.09,23.42,4.21s15.75,1.88,23.65,2.33a223.65,223.65,0,0,0,23.73.15,190.23,190.23,0,0,0,23.58-2.49,143.35,143.35,0,0,0,44.77-15.19l1.4,2.32c-13.6,9-29.15,14.92-45.09,18.41a187.05,187.05,0,0,1-24.24,3.54,232.18,232.18,0,0,1-24.46.57c-8.15-.24-16.28-.93-24.36-1.92s-16.12-2.32-24.08-4A346.83,346.83,0,0,1,1169.47,463a389.53,389.53,0,0,1-44.71-19.22q-10.86-5.49-21.37-11.64t-20.55-13.05q-10.06-6.82-19.6-14.41c-6.34-5.06-12.53-10.31-18.42-15.89A220.9,220.9,0,0,1,1013,352.06Z"/><path class="cls-28" d="M881.22,834.62A308.56,308.56,0,0,0,965,845.54c7-.08,14.08-.38,21.09-1,3.51-.32,7-.53,10.51-1s7-.78,10.46-1.38a324.21,324.21,0,0,0,41.2-9A369.68,369.68,0,0,0,1126,800.5l4.62-2.57c1.54-.87,3-1.8,4.57-2.69,3-1.8,6.08-3.59,9-5.52s6-3.71,8.94-5.71,5.93-3.86,8.8-5.94c11.66-8,22.94-16.64,34-25.58l1.8,2a364.1,364.1,0,0,1-32.48,28.12c-2.81,2.23-5.75,4.29-8.64,6.43s-5.84,4.17-8.81,6.19-6,4-9,5.92c-1.52,1-3,2-4.56,2.89l-4.62,2.78a331.55,331.55,0,0,1-79.13,34.26,297.12,297.12,0,0,1-42.36,8.78c-3.57.55-7.17.85-10.76,1.23s-7.19.57-10.79.84c-7.2.41-14.42.51-21.63.38a270.06,270.06,0,0,1-84.55-15.19Z"/><path class="cls-28" d="M1909.21,616.7a209.42,209.42,0,0,0,8.62,36.6l1.56,4.39c.27.73.5,1.47.8,2.19l.92,2.14c1.19,2.87,2.28,5.77,3.72,8.52l2,4.18c.32.7.72,1.37,1.09,2l1.12,2,2.23,4.07c.78,1.33,1.64,2.62,2.46,3.93a182.6,182.6,0,0,0,23,29.16l3.22,3.39c1.08,1.13,2.26,2.16,3.39,3.24,2.28,2.14,4.45,4.42,6.88,6.42,1.19,1,2.35,2.09,3.53,3.13s2.33,2.12,3.57,3.1c2.43,2,4.87,4,7.27,6.13l-1.5,2.26c-2.81-1.56-5.58-3.2-8.35-4.84-1.41-.8-2.72-1.74-4-2.64s-2.68-1.8-4-2.74c-2.68-1.8-5.18-3.86-7.72-5.87-1.25-1-2.55-2-3.75-3.09l-3.62-3.27a141.58,141.58,0,0,1-24.84-30.07c-.85-1.39-1.73-2.77-2.55-4.19l-2.3-4.33c-.75-1.45-1.58-2.86-2.22-4.37l-2-4.49a126.48,126.48,0,0,1-6.43-18.46,138.27,138.27,0,0,1-4.75-38.4Z"/><path class="cls-28" d="M1926.39,520.8a289.89,289.89,0,0,0-21.82-49.56,228.26,228.26,0,0,0-31.64-43.18,258,258,0,0,0-40.63-34.95l-5.52-3.87c-.91-.68-1.88-1.25-2.83-1.85l-2.86-1.8c-3.82-2.38-7.54-5-11.53-7.12-2-1.1-3.91-2.27-5.87-3.41s-3.9-2.32-5.93-3.34c-4-2.13-8-4.27-12-6.53l1-2.5c4.35,1.49,8.67,3.09,13,4.69,2.18.76,4.27,1.74,6.38,2.66s4.24,1.85,6.33,2.82c4.26,1.83,8.3,4.09,12.41,6.23l3.07,1.63c1,.56,2.06,1.07,3,1.7l5.92,3.65a205.75,205.75,0,0,1,43,35.5,194.83,194.83,0,0,1,31.52,46,203.87,203.87,0,0,1,17.48,52.53Z"/><path class="cls-28" d="M1862.6,553.83a151.89,151.89,0,0,0-17-31.88,180.72,180.72,0,0,0-23.33-27.21,235.89,235.89,0,0,0-27.9-22.73c-9.86-6.95-20.28-13.16-31-19.25l1-2.52a140.94,140.94,0,0,1,34.54,14.66,153.39,153.39,0,0,1,30,23,139.75,139.75,0,0,1,23.29,29.89,104.47,104.47,0,0,1,12.93,35.39Z"/><path class="cls-28" d="M1845.6,547.83c-1.49-1.64-2.69-3.3-4-4.87s-2.51-3.12-3.81-4.6-2.43-3-3.79-4.35-2.45-2.84-3.79-4.18c-5.07-5.45-10.23-10.55-15.6-15.48s-10.91-9.68-16.44-14.88c-2.75-2.63-5.57-5.27-8.37-8.19-1.43-1.38-2.81-2.95-4.24-4.49a50.59,50.59,0,0,1-4.22-5l1-2.5a44.13,44.13,0,0,1,6.79-.11,57,57,0,0,1,6.55.91,59.1,59.1,0,0,1,12.44,4,68.68,68.68,0,0,1,21.24,15.16,71.79,71.79,0,0,1,14.72,21.92,56.46,56.46,0,0,1,3.76,12.75c.09.54.22,1.07.28,1.63l.15,1.67c.11,1.1.18,2.21.23,3.31a43.58,43.58,0,0,1-.4,6.65Z"/><path class="cls-28" d="M1870.11,624.31a298.37,298.37,0,0,0-22.61-51.64,237.11,237.11,0,0,0-32.93-45,267.24,267.24,0,0,0-42.33-36.39l-5.76-4c-.94-.7-2-1.3-2.94-1.93l-3-1.86c-4-2.48-7.86-5.17-12-7.39-2.06-1.15-4.08-2.36-6.13-3.54s-4.06-2.41-6.18-3.46c-4.17-2.21-8.36-4.43-12.52-6.76l1-2.5c4.52,1.56,9,3.24,13.51,4.91,2.27.8,4.44,1.83,6.64,2.79s4.4,1.93,6.58,3c4.42,1.9,8.61,4.26,12.89,6.49l3.19,1.71c1.06.58,2.14,1.12,3.15,1.77l6.17,3.81a215.16,215.16,0,0,1,44.69,36.93A203.06,203.06,0,0,1,1854.38,569a212.4,212.4,0,0,1,18.28,54.6Z"/><path class="cls-28" d="M1842.21,672.7a401.29,401.29,0,0,0,9.09,45.92q1.47,5.65,3.12,11.25c1.08,3.73,2.21,7.45,3.42,11.14,2.45,7.37,5.05,14.68,8,21.85A244.49,244.49,0,0,0,1887,804c8.42,12.88,18.45,24.71,30.64,34.4l-1.5,2.26a96.27,96.27,0,0,1-19.29-14.34c-1.42-1.42-2.87-2.83-4.27-4.27s-2.75-2.94-4.08-4.45l-3.85-4.65-3.66-4.79a193.13,193.13,0,0,1-22.75-42.21c-2.94-7.43-5.58-15-7.8-22.61q-1.68-5.73-3.14-11.52c-1-3.87-1.81-7.75-2.61-11.64a241.18,241.18,0,0,1-5.1-47.28Z"/><path class="cls-28" d="M784.69,862.47A96.72,96.72,0,0,0,787,882.54a86.41,86.41,0,0,0,6.55,18.63,113.46,113.46,0,0,0,10.29,17c3.9,5.44,8.29,10.59,12.83,15.91l-1.71,2.11a66.54,66.54,0,0,1-16.79-13.38,70.69,70.69,0,0,1-12.06-18.13,65.9,65.9,0,0,1-5.85-21.07,56.17,56.17,0,0,1,1.86-21.51Z"/><path class="cls-28" d="M785.15,883.84c-3.15,16-4.87,32.28-3.21,48.16.27,2,.48,4,.79,5.92l.54,2.93c.17,1,.35,1.95.59,2.91.46,1.93.83,3.87,1.42,5.76l.8,2.86c.29.94.64,1.87.95,2.81a109.59,109.59,0,0,0,10.08,21.42c8.34,13.51,19.26,25.44,31.25,36.26s25.07,20.67,38.24,30.48l-1.44,2.3c-7.33-3.81-14.45-8-21.42-12.54-1.72-1.15-3.46-2.28-5.17-3.46s-3.41-2.37-5.1-3.59l-5-3.76c-1.66-1.26-3.27-2.59-4.91-3.89-12.84-10.61-24.69-22.94-33.47-37.56a104.05,104.05,0,0,1-15-48.31c-.86-17,2.17-33.7,7.45-49.38Z"/><path class="cls-28" d="M1025,424.73a352.88,352.88,0,0,0,46,48.78c8.38,7.41,17,14.56,25.89,21.35s18,13.27,27.32,19.44,18.87,12,28.61,17.45,19.65,10.62,29.75,15.36a418.14,418.14,0,0,0,62.54,23.53c42.83,12.15,87.87,16.84,132.16,11.94a320.46,320.46,0,0,0,33-5.31c2.71-.63,5.45-1.15,8.15-1.84l8.11-2,8-2.28c2.69-.75,5.33-1.66,8-2.48,10.62-3.44,21.11-7.32,31.39-11.75,2.57-1.09,5.11-2.28,7.67-3.41s5.08-2.35,7.6-3.58c5.08-2.36,10-5,15-7.58l1.34,2.36c-38.54,23.6-82.22,39.48-127.45,45.17a307.91,307.91,0,0,1-34.07,2.42,316.32,316.32,0,0,1-34.14-1.2,352.53,352.53,0,0,1-67.05-12.57,400.61,400.61,0,0,1-63.62-24.39q-15.35-7.4-30.09-16t-28.74-18.22q-14-9.62-27.28-20.3c-8.81-7.13-17.43-14.5-25.63-22.32s-16.13-15.91-23.63-24.39q-5.64-6.36-10.94-13c-3.49-4.46-6.87-9-10.1-13.66Z"/><path class="cls-28" d="M1235.82,614.58A275.72,275.72,0,0,0,1262,634.8l3.43,2.3,3.48,2.19c1.17.72,2.31,1.48,3.48,2.19l3.54,2.1c2.33,1.43,4.75,2.72,7.13,4.06s4.84,2.56,7.24,3.84a282.68,282.68,0,0,0,61.1,22.57,319.52,319.52,0,0,0,128.87,4.27,345.8,345.8,0,0,0,121-45.13A374.46,374.46,0,0,0,1654,594.6a451.23,451.23,0,0,0,46.23-47.38l2.22,1.56c-2.84,4.84-5.79,9.62-8.9,14.31-1.53,2.36-3.17,4.65-4.79,6.95l-2.43,3.46-2.53,3.4a302.35,302.35,0,0,1-21.78,26,312.47,312.47,0,0,1-178.61,94.49c-45.27,7.29-92.27,4.72-136-8.73-1.36-.42-2.73-.82-4.09-1.27l-4.06-1.37c-2.72-.88-5.4-1.89-8.08-2.88-5.35-2-10.61-4.22-15.82-6.55a243.51,243.51,0,0,1-30.1-16.13c-4.81-3-9.54-6.2-14.09-9.58l-3.42-2.53c-1.13-.85-2.24-1.74-3.35-2.62l-3.31-2.66-3.24-2.75a209.8,209.8,0,0,1-23.9-23.89Z"/><ellipse class="cls-12" cx="1974.38" cy="1152" rx="36" ry="56"/><path class="cls-30" d="M1997.59,1151.5c0,18.78-9.78,34-21.85,34-6.23,0-11.84-4-15.82-10.55-3.74-6.1-6-14.36-6-23.45,0-9.6,2.56-18.27,6.67-24.45,3.94-5.92,9.29-9.55,15.19-9.55C1987.81,1117.5,1997.59,1132.72,1997.59,1151.5Z"/><path class="cls-31" d="M1966.59,1150.5c0,9.6-2.56,18.27-6.67,24.45-3.74-6.1-6-14.36-6-23.45,0-9.6,2.56-18.27,6.67-24.45C1964.29,1133.15,1966.59,1141.41,1966.59,1150.5Z"/><path class="cls-32" d="M225.38,3099,125,3306.27a44.93,44.93,0,0,0,15.49,57L297.38,3468s-108-80-90-171S225.38,3099,225.38,3099Z"/><path class="cls-33" d="M1621,3802.5h-140.3c-.64-.95-1.28-1.9-1.94-2.86-120.64-177.49-351.41-532.53-290.91-566.14,66.35-36.86,187.06,337,431.38,567.34C1619.85,3801.4,1620.44,3802,1621,3802.5Z"/><path class="cls-33" d="M1783.46,3802.5H1716.9l-.82-.84c-156.32-159.57-316.33-370.45-267.2-343.16,65.57,36.43,154.72,190.78,334.27,343.73C1783.25,3802.33,1783.36,3802.41,1783.46,3802.5Z"/><path class="cls-6" d="M2012,1152a107.11,107.11,0,0,1-1.35,18.63,76.48,76.48,0,0,1-5.2,18.33,46.59,46.59,0,0,1-11.35,16.32,32.56,32.56,0,0,1-8.94,5.73,27.6,27.6,0,0,1-21.62,0,33,33,0,0,1-9-5.7,47,47,0,0,1-11.49-16.29,75.91,75.91,0,0,1-5.31-18.37,106,106,0,0,1-1.4-18.7q0-4.68.55-9.33a87.9,87.9,0,0,1,1.41-9.25,75.84,75.84,0,0,1,5.87-17.9,47.68,47.68,0,0,1,11.5-15.51,32.69,32.69,0,0,1,8.57-5.31,28.32,28.32,0,0,1,10.12-2,28,28,0,0,1,10.1,2,32.37,32.37,0,0,1,8.52,5.35,47.39,47.39,0,0,1,11.36,15.53,76.28,76.28,0,0,1,5.75,17.86A101.09,101.09,0,0,1,2012,1152Zm-3.28,0c.14-11.93-2.58-24.06-8.46-34.24a43.26,43.26,0,0,0-11.07-13,22.73,22.73,0,0,0-29.59.09,43.17,43.17,0,0,0-10.93,13c-5.79,10.18-8.43,22.25-8.29,34.13a65.67,65.67,0,0,0,9.41,33.54,49.61,49.61,0,0,0,5,6.79,35.85,35.85,0,0,0,5.92,5.48,27.73,27.73,0,0,0,6.62,3.66,20.17,20.17,0,0,0,14.06,0,27.73,27.73,0,0,0,6.67-3.63,36.09,36.09,0,0,0,6-5.46,49.83,49.83,0,0,0,5.08-6.77A65.18,65.18,0,0,0,2008.74,1152Z"/><path class="cls-6" d="M1962.38,839.5c.48,6.19,1,12.39,1.68,18.55s1.41,12.31,2.31,18.42,1.92,12.19,3.24,18.17c.65,3,1.35,6,2.16,8.88.41,1.46.82,2.91,1.29,4.34s1,2.78,1.46,4.3a115.69,115.69,0,0,1,5,18.59,81.08,81.08,0,0,1,1.14,19.54,59.9,59.9,0,0,1-4.54,19.43A55.1,55.1,0,0,1,1965,986.4l1.09-3.63h0c.45,3.66.72,7.13.93,10.68s.34,7.08.38,10.61a189.79,189.79,0,0,1-.87,21.19,121,121,0,0,1-3.82,20.85,61.24,61.24,0,0,1-8.86,19.17l-.84-.56a59.26,59.26,0,0,0,6.91-19.27,116,116,0,0,0,1.89-20.46,183.25,183.25,0,0,0-1-20.55c-.34-3.41-.77-6.82-1.28-10.2s-1.09-6.81-1.77-10h0l-.39-2,1.48-1.62a49.85,49.85,0,0,0,9.29-14.3,54.56,54.56,0,0,0,4.1-16.68,78,78,0,0,0-.55-17.64,114.11,114.11,0,0,0-3.92-17.6c-3.74-12.31-5.22-24.92-6.11-37.4a310.45,310.45,0,0,1-.24-37.48Z"/><path class="cls-6" d="M999.25,949.52c4.64-1.73,9.35-3.19,14.1-4.54s9.55-2.52,14.37-3.66q14.46-3.3,29.24-5.17a259.92,259.92,0,0,1,59.68-1,180.42,180.42,0,0,1,29.65,5.54,150.89,150.89,0,0,1,14.39,4.82,130.79,130.79,0,0,1,13.78,6.46,105,105,0,0,1,12.83,8.21,94.77,94.77,0,0,1,11.47,10,93.68,93.68,0,0,1,9.65,11.62c1.37,2.1,2.77,4.17,4,6.35s2.35,4.4,3.42,6.63l-.86.52c-1.57-1.9-3-3.86-4.65-5.67s-3.24-3.62-4.89-5.37a115.24,115.24,0,0,0-10.68-9.61,106.12,106.12,0,0,0-11.71-8.1,116.48,116.48,0,0,0-12.55-6.63c-17.21-7.92-36-12.16-55-14.43s-38.43-2.31-57.81-1.32a554.75,554.75,0,0,0-58.17,6.35Z"/><polygon class="cls-12" points="1848.58 3802.79 1814.4 3802.5 1848.45 3802.5 1848.58 3802.79"/></g></g></svg>