<?xml version="1.0" encoding="UTF-8"?>
<svg id="Camada_2" data-name="Camada 2" xmlns="http://www.w3.org/2000/svg" viewBox="0 0 460 230.92">
  <defs>
    <style>
      .cls-1 {
        fill: #fff;
      }
    </style>
  </defs>
  <g id="Camada_1-2" data-name="Camada 1">
    <path class="cls-1" d="M316.85,204.84v15.09c0,6.07-4.92,10.99-10.99,10.99h-15.09c-6.07,0-10.99-4.92-10.99-10.99v-15.09c0-6.07,4.92-10.99,10.99-10.99h15.09c6.07,0,10.99,4.92,10.99,10.99ZM449.01,0h-60.59s-97.65,0-97.65,0c-6.07,0-10.99,4.92-10.99,10.99v154.78c0,6.07,4.92,10.99,10.99,10.99h15.39c6.07,0,10.99-4.92,10.99-10.99V48.05c0-6.07,4.92-10.99,10.99-10.99h12.24c6.07,0,10.99,4.92,10.99,10.99v117.72c0,6.07,4.92,10.99,10.99,10.99h15.39c6.07,0,10.99-4.92,10.99-10.99V48.05c0-6.07,4.92-10.99,10.99-10.99h12.24c6.07,0,10.99,4.92,10.99,10.99v117.72c0,6.07,4.92,10.99,10.98,10.99h15.09c6.07,0,10.99-4.92,10.99-10.99V10.99c0-6.07-4.92-10.99-10.98-10.99ZM162.5,26.07v-15.09c0-6.07-4.92-10.99-10.99-10.99H10.99C4.92,0,0,4.92,0,10.99v15.09c0,6.07,4.92,10.99,10.99,10.99h32.19c6.07,0,10.99,4.92,10.99,10.99v117.72c0,6.07,4.92,10.99,10.99,10.99h15.09c6.07,0,10.99-4.92,10.99-10.99V48.05c0-6.07,4.92-10.99,10.99-10.99h49.3c6.07,0,10.99-4.92,10.99-10.99ZM262.99,65.15v154.77c0,6.07-4.92,10.99-10.99,10.99H119.32c-6.07,0-10.99-4.92-10.99-10.99V65.15c0-6.07,4.92-10.99,10.99-10.99h132.68c6.07,0,10.99,4.92,10.99,10.99ZM225.93,102.21c0-6.07-4.92-10.99-10.99-10.99h-58.56c-6.07,0-10.99,4.92-10.99,10.99v80.65c0,6.07,4.92,10.99,10.99,10.99h58.56c6.07,0,10.99-4.92,10.99-10.99v-80.65Z"/>
  </g>
</svg>